<svg height="512pt" viewBox="0 0 512 512" width="512pt" xmlns="http://www.w3.org/2000/svg"><path d="m226.339844 392.492188c-26.035156 0-50.507813-10.136719-68.917969-28.542969-9.316406-9.320313-9.316406-24.429688 0-33.75 9.320313-9.316407 24.429687-9.316407 33.746094 0 9.394531 9.398437 21.886719 14.570312 35.171875 14.570312s25.773437-5.171875 35.167968-14.570312l68.691407-68.691407c19.394531-19.390624 19.394531-50.945312 0-70.335937l-9.371094-9.371094c-9.316406-9.320312-9.316406-24.429687 0-33.746093 9.320313-9.320313 24.429687-9.320313 33.746094 0l9.371093 9.367187c38 38.003906 38 99.832031 0 137.835937l-68.691406 68.691407c-18.40625 18.40625-42.882812 28.542969-68.914062 28.542969zm0 0" fill="#6e7ca8"/><path d="m226.339844 344.769531c-8.179688 0-16.054688-1.96875-23.09375-5.667969.527344 2.183594.804687 4.441407.804687 6.746094 0 7.617188-2.96875 14.78125-8.355469 20.167969l-15.117187 15.117187c13.921875 7.421876 29.539063 11.359376 45.761719 11.359376 24.703125 0 47.996094-9.144532 66.039062-25.808594 1.199219-6.8125 1.816406-13.777344 1.816406-20.839844 0-14.234375-2.496093-28.085938-7.269531-41.0625l-25.417969 25.417969c-9.394531 9.398437-21.882812 14.570312-35.167968 14.570312zm0 0" fill="#54669e"/><path d="m106.832031 512c-26.03125 0-50.507812-10.136719-68.917969-28.546875l-9.367187-9.367187c-18.410156-18.410157-28.546875-42.882813-28.546875-68.917969 0-26.03125 10.136719-50.507813 28.546875-68.914063l68.691406-68.695312c18.40625-18.40625 42.882813-28.542969 68.914063-28.542969 26.035156 0 50.507812 10.136719 68.917968 28.542969l9.371094 9.375c18.40625 18.40625 28.542969 42.878906 28.542969 68.914062 0 26.03125-10.136719 50.507813-28.542969 68.914063l-68.695312 68.691406c-18.40625 18.410156-42.882813 28.546875-68.914063 28.546875zm59.320313-225.261719c-13.285156 0-25.773438 5.171875-35.167969 14.566407l-68.691406 68.691406c-9.394531 9.394531-14.566407 21.886718-14.566407 35.171875 0 13.285156 5.171876 25.773437 14.566407 35.167969l9.371093 9.371093c9.394532 9.394531 21.882813 14.566407 35.167969 14.566407 13.285157 0 25.777344-5.171876 35.171875-14.566407l68.691406-68.691406c9.394532-9.394531 14.566407-21.882813 14.566407-35.167969 0-13.289062-5.171875-25.777344-14.566407-35.171875l-9.371093-9.371093c-9.394531-9.394532-21.886719-14.566407-35.171875-14.566407zm0 0" fill="#89d47f"/><path d="m345.847656 272.984375c-26.035156 0-50.507812-10.136719-68.917968-28.542969l-9.371094-9.371094c-18.40625-18.410156-28.542969-42.882812-28.542969-68.917968 0-26.03125 10.136719-50.507813 28.542969-68.914063l68.695312-68.691406c18.40625-18.410156 42.882813-28.546875 68.914063-28.546875s50.507812 10.136719 68.914062 28.546875l9.371094 9.367187c18.410156 18.410157 28.546875 42.882813 28.546875 68.917969 0 26.03125-10.136719 50.507813-28.546875 68.914063l-68.691406 68.695312c-18.40625 18.40625-42.882813 28.542969-68.914063 28.542969zm59.320313-225.257813c-13.285157 0-25.777344 5.171876-35.171875 14.566407l-68.691406 68.691406c-9.394532 9.394531-14.566407 21.882813-14.566407 35.167969 0 13.289062 5.171875 25.777344 14.566407 35.171875l9.371093 9.371093c9.394531 9.394532 21.886719 14.566407 35.171875 14.566407s25.773438-5.171875 35.167969-14.566407l68.691406-68.691406c9.394531-9.394531 14.566407-21.886718 14.566407-35.171875 0-13.285156-5.171876-25.773437-14.566407-35.167969l-9.371093-9.371093c-9.394532-9.394531-21.882813-14.566407-35.167969-14.566407zm0 0" fill="#eea849"/><path d="m292.414062 189.269531c-3.703124-7.046875-5.675781-14.929687-5.675781-23.117187 0-13.285156 5.171875-25.773438 14.566407-35.167969l25.417968-25.417969c-12.972656-4.773437-26.824218-7.269531-41.0625-7.269531-7.058594 0-14.027344.613281-20.839844 1.816406-16.664062 18.042969-25.804687 41.335938-25.804687 66.039063 0 16.222656 3.9375 31.839844 11.359375 45.761718l15.113281-15.117187c5.375-5.371094 12.539063-8.328125 20.171875-8.328125 2.308594 0 4.570313.273438 6.753906.800781zm0 0" fill="#e9901b"/><path d="m174.296875 370.9375c-6.109375 0-12.214844-2.328125-16.875-6.992188l-9.367187-9.371093c-38-37.996094-38-99.828125 0-137.828125l68.691406-68.691406c18.40625-18.410157 42.882812-28.546876 68.914062-28.546876 26.035156 0 50.511719 10.136719 68.917969 28.546876 9.320313 9.316406 9.320313 24.425781 0 33.746093-9.316406 9.316407-24.425781 9.316407-33.746094 0-19.390625-19.390625-50.945312-19.390625-70.339843 0l-68.691407 68.691407c-19.390625 19.390624-19.390625 50.945312 0 70.335937l9.371094 9.375c9.320313 9.316406 9.316406 24.425781 0 33.746094-4.660156 4.65625-10.769531 6.988281-16.875 6.988281zm0 0" fill="#6e7ca8"/><path d="m47.726562 358.398438c-4.144531 0-7.5-3.359376-7.5-7.5v-4.515626c0-4.144531 3.355469-7.5 7.5-7.5 4.140626 0 7.5 3.355469 7.5 7.5v4.515626c0 4.140624-3.359374 7.5-7.5 7.5zm0 0" fill="#5ec783"/><path d="m336.898438 174.707031c-4.144532 0-7.5-3.355469-7.5-7.5v-9.109375c0-4.144531 3.355468-7.5 7.5-7.5 4.140624 0 7.5 3.355469 7.5 7.5v9.109375c0 4.144531-3.359376 7.5-7.5 7.5zm0 0" fill="#54669e"/><path d="m478.636719 82.441406c-4.144531 0-7.5-3.355468-7.5-7.5v-12.53125c0-4.140625 3.355469-7.5 7.5-7.5 4.140625 0 7.5 3.359375 7.5 7.5v12.53125c0 4.144532-3.359375 7.5-7.5 7.5zm0 0" fill="#e9901b"/><path d="m198.148438 440.355469c-4.140626 0-7.5-3.355469-7.5-7.5v-9.644531c0-4.140626 3.359374-7.5 7.5-7.5 4.140624 0 7.5 3.359374 7.5 7.5v9.644531c0 4.144531-3.359376 7.5-7.5 7.5zm0 0" fill="#5ec783"/><g fill="#a3defe"><path d="m122.257812 186.296875c-1.273437 0-2.5625-.324219-3.742187-1.007813l-34.042969-19.652343c-3.585937-2.070313-4.816406-6.65625-2.746094-10.246094 2.074219-3.585937 6.660157-4.816406 10.246094-2.742187l34.042969 19.652343c3.585937 2.070313 4.816406 6.660157 2.746094 10.246094-1.390625 2.40625-3.910157 3.75-6.503907 3.75zm0 0"/><path d="m177.1875 127.007812c-2.589844 0-5.113281-1.34375-6.5-3.75l-18.054688-31.269531c-2.070312-3.589843-.84375-8.175781 2.746094-10.246093 3.585938-2.070313 8.171875-.84375 10.242188 2.746093l18.054687 31.269531c2.070313 3.585938.84375 8.175782-2.742187 10.246094-1.183594.679688-2.472656 1.003906-3.746094 1.003906zm0 0"/><path d="m423.769531 360.359375c-1.273437 0-2.5625-.324219-3.742187-1.007813l-34.042969-19.652343c-3.585937-2.070313-4.816406-6.660157-2.746094-10.246094 2.074219-3.589844 6.660157-4.816406 10.246094-2.742187l34.042969 19.652343c3.585937 2.070313 4.816406 6.65625 2.746094 10.246094-1.390626 2.40625-3.910157 3.75-6.503907 3.75zm0 0"/><path d="m352.878906 431.265625c-2.59375 0-5.113281-1.34375-6.5-3.75l-18.054687-31.273437c-2.070313-3.585938-.84375-8.175782 2.742187-10.246094 3.589844-2.070313 8.175782-.84375 10.246094 2.746094l18.054688 31.273437c2.070312 3.585937.84375 8.171875-2.746094 10.242187-1.179688.683594-2.46875 1.007813-3.742188 1.007813zm0 0"/></g></svg>