<svg height="512" viewBox="0 0 64 64" width="512" xmlns="http://www.w3.org/2000/svg"><circle cx="32" cy="32" fill="#57a4ff" r="29"/><path d="m56.27 16.12a29.02 29.02 0 0 1 -3.76 36.39l-5.51-5.51 7-8-5.35-2.35a7.778 7.778 0 0 0 -1.03-2.13l8.38-6.52-1-4-6 1z" fill="#00d7df"/><path d="m53.37 12.39-3.37 5.61-7-1 2 3v6l-8 1v-3.34c2-2.45 4-5.45 4-7.66a8 8 0 0 0 -16 0c0 4.42 8 12 8 12l2.36 5.32a7.978 7.978 0 0 0 -2.36 5.68 5.173 5.173 0 0 0 .19 1.3l-11.19 9.7 7-12-5-9-1.35.81a5.666 5.666 0 0 0 .35-1.81 7.979 7.979 0 0 0 -5.43-7.57l4.43-10.43-5 2 2.46-6.15a29.012 29.012 0 0 1 33.91 6.54z" fill="#00d7df"/><path d="m48.65 36.65a7.907 7.907 0 0 1 .35 2.35c0 3.37-4.64 8.56-6.86 10.85-.68.72-1.14 1.15-1.14 1.15s-.65-.62-1.58-1.6c-2.03-2.15-5.39-6.04-6.23-9.1a5.173 5.173 0 0 1 -.19-1.3 7.995 7.995 0 0 1 14.62-4.48 7.778 7.778 0 0 1 1.03 2.13zm-3.65 2.35a4 4 0 1 0 -4 4 4 4 0 0 0 4-4z" fill="#ff3051"/><path d="m45 52-1 2-9 2-5 2-2-4 4-4h5l2.42-.6c.93.98 1.58 1.6 1.58 1.6s.46-.43 1.14-1.15z" fill="#00d7df"/><circle cx="41" cy="39" fill="#ffda44" r="4"/><path d="m33 8a8 8 0 0 1 8 8c0 2.21-2 5.21-4 7.66a53.341 53.341 0 0 1 -4 4.34s-8-7.58-8-12a8 8 0 0 1 8-8zm4 8a4 4 0 1 0 -4 4 4 4 0 0 0 4-4z" fill="#ff3051"/><circle cx="33" cy="16" fill="#ffda44" r="4"/><path d="m23 28a5.666 5.666 0 0 1 -.35 1.81c-1.13 3.2-4.63 7.11-6.49 9.02-.7.73-1.16 1.17-1.16 1.17s-8-7.58-8-12a8 8 0 0 1 8-8 7.831 7.831 0 0 1 2.57.43 7.979 7.979 0 0 1 5.43 7.57zm-4 0a4 4 0 1 0 -4 4 4 4 0 0 0 4-4z" fill="#ff3051"/><circle cx="15" cy="28" fill="#ffda44" r="4"/><path d="m18 40-9.29 9.29a29.01 29.01 0 0 1 1.48-36.4l5.81 2.11-5.73 6.55a7.981 7.981 0 0 0 -3.27 6.45c0 4.42 8 12 8 12s.46-.44 1.16-1.17z" fill="#00d7df"/><path d="m32 2a30 30 0 1 0 30 30 30.034 30.034 0 0 0 -30-30zm16.369 44.955 6.383-7.3a1 1 0 0 0 -.35-1.575l-4.962-2.175a8.972 8.972 0 0 0 -.5-1.142l7.678-5.974a1 1 0 0 0 .356-1.032l-1-4a1 1 0 0 0 -1.135-.743l-3.377.563 4.689-5.727a27.921 27.921 0 0 1 -3.671 33.216zm-8.057 4.771a1 1 0 0 0 1.376 0c.1-.095.3-.286.56-.544l1.485 1.118-.415.829-8.535 1.9a1.063 1.063 0 0 0 -.155.047l-4.145 1.654-1.266-2.53 3.2-3.2h4.583a1.032 1.032 0 0 0 .241-.029l1.849-.459c.598.615 1.05 1.051 1.222 1.214zm.688-2.126c-2.447-2.457-7-7.639-7-10.6a7 7 0 0 1 14 0c0 2.96-4.553 8.144-7 10.6zm-8-23c-2.447-2.457-7-7.639-7-10.6a7 7 0 0 1 14 0c0 2.96-4.553 8.144-7 10.6zm3-.244v.644a1 1 0 0 0 1 1 .861.861 0 0 0 .124-.008l8-1a1 1 0 0 0 .876-.992v-6a1.006 1.006 0 0 0 -.168-.555l-.759-1.139 4.785.684a1 1 0 0 0 1-.475l2.653-4.415q.795.953 1.5 1.978l-6.787 8.29a1 1 0 0 0 .939 1.619l5.089-.848.618 2.473-7.07 5.505a8.952 8.952 0 0 0 -12.054-1.4l-1.546-3.485c.43-.432 1.064-1.07 1.8-1.874zm14 12.644c0-.23-.018-.455-.034-.68l2.384 1.047-4.553 5.2c1.253-1.902 2.203-3.892 2.203-5.567zm2.11-26.454-2.626 4.37-6.342-.906a1 1 0 0 0 -.974 1.545l1.832 2.745v4.814l-6 .75v-1.836c2.031-2.528 4-5.607 4-8.028a9 9 0 0 0 -18 0c0 4.528 6.873 11.344 8.166 12.586l2.019 4.552a8.955 8.955 0 0 0 -2.185 5.862 5.307 5.307 0 0 0 .089.931l-6.189 5.361 3.96-6.788a1 1 0 0 0 .01-.99l-5-9a.889.889 0 0 0 -.876-.5l.006-.014a9 9 0 0 0 -5.116-8.106l4.036-9.5a1 1 0 0 0 -1.292-1.32l-2.828 1.131 1.437-3.605a27.925 27.925 0 0 1 31.873 5.946zm-37.11 26.054c-2.447-2.455-7-7.637-7-10.6a7 7 0 0 1 14 0c0 2.96-4.553 8.144-7 10.6zm2.5-30.546-1.43 3.574a1 1 0 0 0 1.3 1.3l2.768-1.108-3.145 7.41a8.492 8.492 0 0 0 -3.25-.132l3.009-3.44a1 1 0 0 0 -.411-1.6l-4.378-1.59a28.152 28.152 0 0 1 5.537-4.414zm-6.988 6.017 3.772 1.37-4.734 5.414a8.98 8.98 0 0 0 -3.55 7.145c0 4.712 7.461 11.919 8.312 12.726a1 1 0 0 0 1.376 0c.109-.1.33-.316.628-.612l.1.061-7.564 7.559a27.935 27.935 0 0 1 1.661-33.663zm-.458 35.288 8.652-8.652a1 1 0 0 0 -.17-1.551l-.8-.511c1.909-2.053 4.566-5.244 5.7-8.142l.19-.113 4.221 7.6-6.711 11.51a1 1 0 0 0 1.519 1.259l10.106-8.759a29.245 29.245 0 0 0 4.772 6.843l-.655.157h-4.878a1 1 0 0 0 -.707.293l-4 4a1 1 0 0 0 -.188 1.154l2 4a1 1 0 0 0 .895.553 1.015 1.015 0 0 0 .372-.071l4.928-1.971 8.921-1.982a1 1 0 0 0 .678-.529l1-2a1 1 0 0 0 -.299-1.247l-1.95-1.466c.713-.764 1.534-1.688 2.352-2.708a.993.993 0 0 0 .291.681l4.773 4.773a27.94 27.94 0 0 1 -41.011-3.121z"/><path d="m41 34a5 5 0 1 0 5 5 5.006 5.006 0 0 0 -5-5zm0 8a3 3 0 1 1 3-3 3 3 0 0 1 -3 3z"/><path d="m15 23a5 5 0 1 0 5 5 5.006 5.006 0 0 0 -5-5zm0 8a3 3 0 1 1 3-3 3 3 0 0 1 -3 3z"/><path d="m33 11a5 5 0 1 0 5 5 5.006 5.006 0 0 0 -5-5zm0 8a3 3 0 1 1 3-3 3 3 0 0 1 -3 3z"/></svg>