<?xml version="1.0" encoding="utf-8"?>
<!-- Generator: Adobe Illustrator 22.0.1, SVG Export Plug-In . SVG Version: 6.00 Build 0)  -->
<svg version="1.1" id="Слой_1" xmlns="http://www.w3.org/2000/svg" xmlns:xlink="http://www.w3.org/1999/xlink" x="0px" y="0px"
	 viewBox="0 0 517 503.1" style="enable-background:new 0 0 517 503.1;" xml:space="preserve">
<style type="text/css">
	.st0{fill:#0F356F;}
	.st1{fill:#134A9E;}
	.st2{enable-background:new    ;}
	.st3{fill:#FFFFFF;}
</style>
<title>iterations</title>
<g>
	<polygon class="st0" points="474.3,444.3 229.3,444.3 229.3,366.3 474.3,366.3 503.3,405.3 	"/>
	<path class="st1" d="M232.3,57.9c-106.6,0-193,86.4-193,193s86.4,193,193,193s193-86.4,193-193S338.9,57.9,232.3,57.9z
		 M232.3,365.9c-63.5,0-115-51.5-115-115s51.5-115,115-115s115,51.5,115,115v0C347.3,314.4,295.8,365.9,232.3,365.9z"/>
	<path class="st0" d="M52.4,320.9C74.9,378,121,419,175.4,435.5l0,0l46.5-26.8l22.4-42.4c-13.9-0.6-27.7-2-41.4-4.1l0,0
		c-34.5-8.9-63.8-34.1-77.9-69.8l-26.5,39.5L52.4,320.9z"/>
	<polygon class="st1" points="244.3,444.3 10.3,444.3 34.3,405.3 10.3,366.3 244.3,366.3 	"/>
	<g class="st2">
		<path class="st0" d="M155.4,234.5v27h-6.1v-27H155.4z"/>
	</g>
	<g class="st2">
		<path class="st0" d="M167.7,236.3v5.6h4.4v4.5h-4.4v7.1c0,2.4,0.6,3.4,2.4,3.4c0.8,0,1.4-0.1,1.8-0.2l0,4.6
			c-0.8,0.3-2.2,0.5-4,0.5c-2,0-3.6-0.7-4.6-1.7c-1.1-1.2-1.7-3-1.7-5.8v-8h-2.6v-4.5h2.6v-4.2L167.7,236.3z"/>
	</g>
	<g class="st2">
		<path class="st0" d="M180.2,253.6c0.2,2.5,2.7,3.7,5.5,3.7c2.1,0,3.8-0.3,5.4-0.8l0.8,4.1c-2,0.8-4.4,1.2-7.1,1.2
			c-6.6,0-10.4-3.8-10.4-10c0-5,3.1-10.4,9.9-10.4c6.3,0,8.7,4.9,8.7,9.8c0,1-0.1,2-0.2,2.4H180.2z M187.4,249.5c0-1.5-0.6-4-3.4-4
			c-2.6,0-3.6,2.3-3.8,4H187.4z"/>
	</g>
	<g class="st2">
		<path class="st0" d="M197,248.4c0-2.9-0.1-4.8-0.2-6.4h5.2l0.2,3.6h0.2c1-2.8,3.4-4,5.3-4c0.6,0,0.8,0,1.3,0.1v5.7
			c-0.4-0.1-1-0.2-1.6-0.2c-2.2,0-3.8,1.2-4.2,3.1c-0.1,0.4-0.1,0.9-0.1,1.4v9.9H197V248.4z"/>
	</g>
	<g class="st2">
		<path class="st0" d="M222.9,261.5l-0.4-2h-0.1c-1.3,1.6-3.3,2.4-5.6,2.4c-4,0-6.3-2.9-6.3-6c0-5.1,4.6-7.5,11.5-7.5v-0.3
			c0-1-0.6-2.5-3.6-2.5c-2,0-4.1,0.7-5.4,1.5l-1.1-3.9c1.4-0.8,4-1.7,7.6-1.7c6.5,0,8.6,3.8,8.6,8.4v6.8c0,1.9,0.1,3.7,0.3,4.8
			H222.9z M222.1,252.2c-3.2,0-5.7,0.7-5.7,3.1c0,1.6,1,2.3,2.4,2.3c1.5,0,2.8-1,3.2-2.2c0.1-0.3,0.1-0.7,0.1-1V252.2z"/>
	</g>
	<g class="st2">
		<path class="st0" d="M239.5,236.3v5.6h4.4v4.5h-4.4v7.1c0,2.4,0.6,3.4,2.4,3.4c0.8,0,1.4-0.1,1.8-0.2l0,4.6
			c-0.8,0.3-2.2,0.5-4,0.5c-2,0-3.6-0.7-4.6-1.7c-1.1-1.2-1.7-3-1.7-5.8v-8h-2.6v-4.5h2.6v-4.2L239.5,236.3z"/>
		<path class="st0" d="M254.4,236.5c0,1.7-1.3,3-3.3,3c-1.9,0-3.2-1.4-3.2-3c0-1.8,1.2-3.1,3.2-3.1
			C253.1,233.4,254.3,234.7,254.4,236.5z M248.1,261.5v-19.6h6.1v19.6H248.1z"/>
		<path class="st0" d="M279.1,251.5c0,7.2-5.1,10.4-10.3,10.4c-5.7,0-10.1-3.8-10.1-10.1c0-6.3,4.2-10.4,10.4-10.4
			C275.1,241.5,279.1,245.6,279.1,251.5z M265,251.7c0,3.4,1.4,5.9,4,5.9c2.4,0,3.9-2.4,3.9-5.9c0-2.9-1.1-5.9-3.9-5.9
			C266.1,245.8,265,248.8,265,251.7z"/>
		<path class="st0" d="M283.7,248.2c0-2.4-0.1-4.5-0.2-6.2h5.3l0.3,2.7h0.1c0.8-1.2,2.8-3.1,6-3.1c4,0,7,2.6,7,8.4v11.6h-6.1v-10.8
			c0-2.5-0.9-4.2-3.1-4.2c-1.7,0-2.7,1.2-3.1,2.3c-0.2,0.4-0.2,1-0.2,1.5v11.3h-6.1V248.2z"/>
		<path class="st0" d="M307.8,256.2c1.1,0.7,3.4,1.5,5.2,1.5c1.8,0,2.6-0.6,2.6-1.6c0-1-0.6-1.5-2.9-2.2c-4-1.4-5.6-3.6-5.6-5.9
			c0-3.6,3.1-6.4,8-6.4c2.3,0,4.3,0.5,5.5,1.1l-1.1,4.2c-0.9-0.5-2.6-1.1-4.2-1.1c-1.5,0-2.3,0.6-2.3,1.6c0,0.9,0.8,1.4,3.2,2.2
			c3.7,1.3,5.3,3.2,5.3,6c0,3.6-2.9,6.3-8.5,6.3c-2.6,0-4.8-0.6-6.3-1.4L307.8,256.2z"/>
	</g>
	<path class="st0" d="M299.6,157.6c30,21.7,47.7,56.4,47.7,93.4l38.3-26.8l39.7,26.8c0-59-27-114.8-73.3-151.4l0,0l-53,7.9"/>
	<path class="st0" d="M208.1,59.4C147.2,66.9,96.6,102.5,67,151.1l0,0l14.2,51.3l50.1-6.8l0,0c17.2-31.2,48.3-54.1,86.3-58.9
		L186.4,102L208.1,59.4z"/>
	<g class="st2">
		<path class="st3" d="M95.9,293.7l5.9,0.2l0.7,2.3l-18.7-0.8l-0.8-2.6L98.2,282l0.7,2.3l-4.8,3.4L95.9,293.7z M92.5,288.7l-4.4,3.1
			c-1,0.7-1.9,1.3-2.8,1.8l0,0.1c1.1,0,2.2-0.1,3.3,0l5.4,0.2L92.5,288.7z"/>
	</g>
	<g class="st2">
		<path class="st3" d="M95.7,270.9c0.4,0.5,1.1,1.8,1.4,3.4c0.7,3.8-1.4,6.7-5.2,7.4c-3.8,0.7-7.1-1.4-7.9-5.5
			c-0.3-1.3-0.1-2.6,0.1-3.3l1.9,0.2c-0.2,0.6-0.3,1.5-0.1,2.7c0.5,2.9,2.9,4,5.6,3.5c2.9-0.5,4.3-2.7,3.9-5.2
			c-0.2-1.3-0.7-2.1-1.1-2.7L95.7,270.9z"/>
	</g>
	<g class="st2">
		<path class="st3" d="M94.4,259.1c0.4,0.6,0.9,1.9,1.1,3.5c0.4,3.8-1.9,6.5-5.8,6.9c-3.9,0.4-6.9-2-7.4-6.1
			c-0.1-1.4,0.1-2.6,0.3-3.2l1.8,0.3c-0.3,0.6-0.5,1.5-0.3,2.7c0.3,2.9,2.6,4.2,5.2,4c2.9-0.3,4.5-2.3,4.3-4.8
			c-0.1-1.3-0.6-2.1-0.9-2.7L94.4,259.1z"/>
	</g>
	<g class="st2">
		<path class="st3" d="M88.8,255.1c3.1-0.1,4.4-2.1,4.4-4.4c0-1.7-0.3-2.6-0.7-3.5l1.6-0.4c0.4,0.8,0.8,2.2,0.8,4.2
			c0,3.9-2.5,6.3-6.3,6.3c-3.8,0-6.9-2.2-6.9-5.9c0-4.1,3.6-5.3,5.9-5.3c0.5,0,0.8,0,1.1,0.1L88.8,255.1z M87.1,248.4
			c-1.5,0-3.7,0.6-3.7,3.2c0,2.3,2.2,3.3,3.8,3.5L87.1,248.4z"/>
	</g>
	<g class="st2">
		<path class="st3" d="M86.3,242.3c-1.6-0.2-2.9-0.2-4.1-0.3l0.2-2.1l2.2,0.1l0-0.1c-1.5-1.1-2.2-2.7-2-4.7c0.3-3.1,3.1-5.1,6.9-4.7
			c4.5,0.4,6.5,3.4,6.3,6.4c-0.2,1.7-1,3.1-2.4,3.7l0,0.1l6.9,0.6l-0.2,2.3L86.3,242.3z M89.9,240.3c0.3,0,0.7,0,1,0
			c1.6-0.3,2.9-1.5,3-3.2c0.2-2.4-1.6-4-4.5-4.3c-2.5-0.2-4.8,0.9-5.1,3.3c-0.1,1.6,0.8,3.1,2.5,3.7c0.3,0.1,0.6,0.2,0.9,0.2
			L89.9,240.3z"/>
	</g>
	<g class="st2">
		<path class="st3" d="M80.9,222.4l3.6,0.7l0.6-3.3l1.7,0.3l-0.6,3.3l6.7,1.2c1.5,0.3,2.5,0,2.7-1.3c0.1-0.6,0.1-1,0.1-1.3l1.7,0.2
			c0.1,0.5,0.1,1.2-0.1,2.1c-0.2,1.1-0.7,1.8-1.4,2.3c-0.8,0.5-1.9,0.6-3.4,0.3l-6.8-1.2l-0.4,1.9l-1.7-0.3l0.4-1.9l-3-0.5
			L80.9,222.4z"/>
	</g>
	<g class="st2">
		<path class="st3" d="M114.2,149.8c0.5-0.9,1.5-2.1,2.5-3.3c1.5-1.7,2.8-2.5,4.2-2.7c1.1-0.2,2.3,0.1,3.3,1c1.3,1.1,1.6,3,0.9,4.8
			l0,0c1.4-1,3.8-1.5,5.7,0.3c1.1,1,1.6,2.2,1.6,3.5c0,1.7-0.9,3.5-2.9,5.6c-1.1,1.2-1.9,2-2.5,2.5L114.2,149.8z M121.1,153l1.4-1.5
			c1.6-1.8,1.6-3.7,0.4-4.8c-1.5-1.4-3.2-0.8-4.7,0.9c-0.7,0.8-1,1.3-1.2,1.6L121.1,153z M127.4,158.7c0.4-0.3,0.8-0.7,1.4-1.3
			c1.6-1.7,2.4-3.9,0.5-5.7c-1.8-1.6-3.9-0.8-5.6,1.1l-1.3,1.4L127.4,158.7z"/>
	</g>
	<g class="st2">
		<path class="st3" d="M142.5,141.5c0.9,1,1.7,1.8,2.4,2.5l-1.5,1.4l-1.5-1.5l0,0c0.2,1.2,0.1,3.1-1.6,4.6c-1.5,1.3-4,2.1-7-1.2
			l-4.9-5.6l1.7-1.5l4.7,5.3c1.6,1.8,3.2,2.5,4.8,1.1c1.2-1,1.2-2.5,0.9-3.6c-0.1-0.3-0.3-0.7-0.6-1l-5.2-5.8l1.7-1.5L142.5,141.5z"
			/>
	</g>
	<g class="st2">
		<path class="st3" d="M140.3,127.1c0.5,0.6,0.4,1.5-0.3,2c-0.6,0.5-1.5,0.3-2-0.3c-0.5-0.6-0.4-1.5,0.3-2
			C138.9,126.3,139.8,126.5,140.3,127.1z M148.1,141.6l-7.7-10.1l1.8-1.4l7.7,10.1L148.1,141.6z"/>
	</g>
	<g class="st2">
		<path class="st3" d="M142.6,122.5l1.9-1.3l10.6,15.3l-1.9,1.3L142.6,122.5z"/>
	</g>
	<g class="st2">
		<path class="st3" d="M158.8,112.4l7.7,13.4c0.6,1,1.2,2.1,1.7,2.8l-1.8,1l-1.2-1.9l0,0c0.1,1.6-0.7,3.3-2.5,4.3
			c-2.7,1.5-6,0.5-8-2.9c-2.1-3.7-1.2-7.2,1.5-8.8c1.7-1,3.3-0.8,4.3-0.2l0,0l-3.8-6.6L158.8,112.4z M162.3,123.2
			c-0.1-0.3-0.4-0.6-0.6-0.8c-1-1.1-2.7-1.5-4.2-0.7c-2.1,1.2-2.3,3.7-0.9,6.2c1.3,2.2,3.4,3.5,5.6,2.2c1.3-0.8,2.1-2.4,1.6-4.1
			c-0.1-0.3-0.2-0.6-0.4-0.9L162.3,123.2z"/>
	</g>
	<g class="st2">
		<path class="st3" d="M237.7,97.1l-5.4-0.2l0.1-1.9l13.1,0.5l-0.1,1.9l-5.4-0.2l-0.6,15.8l-2.3-0.1L237.7,97.1z"/>
	</g>
	<g class="st2">
		<path class="st3" d="M247,107.6c-0.3,3.1,1.5,4.6,3.8,4.9c1.6,0.2,2.7,0,3.6-0.2l0.2,1.7c-0.9,0.3-2.3,0.5-4.3,0.2
			c-3.9-0.5-5.9-3.3-5.4-7.1s3.1-6.5,6.8-6c4.1,0.5,4.7,4.3,4.5,6.6c-0.1,0.5-0.2,0.8-0.2,1.1L247,107.6z M253.9,106.8
			c0.2-1.5-0.1-3.8-2.7-4.1c-2.3-0.3-3.6,1.7-4,3.3L253.9,106.8z"/>
	</g>
	<g class="st2">
		<path class="st3" d="M258.3,112.9c0.6,0.6,1.7,1.3,2.8,1.5c1.6,0.4,2.6-0.3,2.8-1.3c0.2-1.1-0.3-1.8-1.8-2.8
			c-2.1-1.3-2.8-2.7-2.5-4.2c0.4-2,2.4-3.3,5.1-2.7c1.3,0.3,2.3,0.9,2.9,1.4l-0.9,1.5c-0.4-0.4-1.2-1-2.4-1.3
			c-1.3-0.3-2.2,0.3-2.4,1.2c-0.2,1,0.4,1.6,1.9,2.6c2,1.3,2.8,2.6,2.4,4.5c-0.5,2.2-2.5,3.4-5.4,2.7c-1.4-0.3-2.5-0.9-3.3-1.6
			L258.3,112.9z"/>
	</g>
	<g class="st2">
		<path class="st3" d="M275.7,102.7l-1,3.5l3.2,0.9l-0.5,1.7l-3.2-0.9l-1.9,6.6c-0.4,1.5-0.3,2.5,1,2.9c0.6,0.2,1,0.2,1.3,0.2
			l-0.4,1.7c-0.5,0.1-1.2,0-2.1-0.3c-1-0.3-1.8-0.9-2.1-1.6c-0.4-0.8-0.3-2,0.1-3.4l1.9-6.7l-1.9-0.6l0.5-1.7l1.9,0.6l0.9-2.9
			L275.7,102.7z"/>
	</g>
	<g class="st2">
		<path class="st3" d="M339.9,138.7c1.1,0.9,2.4,1.9,3.6,3.2c2.3,2.4,3.3,4.6,3.4,6.7c0,2.1-0.8,4.2-2.9,6.2c-2.1,2-4.4,3-6.7,2.9
			c-2.3,0-4.9-1.4-7.2-3.9c-1.1-1.2-2-2.2-2.7-3.1L339.9,138.7z M330.3,151.1c0.3,0.5,0.9,1.1,1.5,1.8c3.4,3.5,7.2,3.5,10.6,0.2
			c3-2.9,3.3-6.4,0-9.9c-0.8-0.9-1.5-1.4-2-1.8L330.3,151.1z"/>
	</g>
	<g class="st2">
		<path class="st3" d="M344.7,161.1c-2.5,1.9-2.3,4.3-0.9,6.1c1,1.3,1.8,1.9,2.6,2.4l-1.1,1.3c-0.8-0.4-2-1.3-3.2-2.9
			c-2.4-3.1-1.7-6.5,1.3-8.8c3.1-2.3,6.8-2.3,9.1,0.6c2.5,3.3,0.3,6.4-1.6,7.8c-0.4,0.3-0.7,0.5-0.9,0.6L344.7,161.1z M350.1,165.5
			c1.2-0.9,2.6-2.7,1.1-4.8c-1.4-1.9-3.7-1.4-5.1-0.6L350.1,165.5z"/>
	</g>
	<g class="st2">
		<path class="st3" d="M348.9,172.9c0,0.8,0.2,2.1,0.8,3.1c0.9,1.4,2,1.7,2.9,1.1c0.9-0.6,1.1-1.5,0.7-3.2c-0.5-2.4,0-4,1.3-4.8
			c1.7-1.1,4-0.6,5.5,1.8c0.7,1.1,1,2.2,1,3.1l-1.7,0.4c0-0.6-0.1-1.6-0.8-2.6c-0.7-1.2-1.8-1.4-2.6-0.9c-0.9,0.6-0.9,1.5-0.5,3.2
			c0.5,2.3,0.1,3.9-1.5,4.9c-1.9,1.2-4.2,0.5-5.8-2c-0.7-1.2-1.1-2.5-1.2-3.5L348.9,172.9z"/>
	</g>
	<g class="st2">
		<path class="st3" d="M352.6,183.6l11.2-6.1l1.1,2l-11.2,6.1L352.6,183.6z M368.1,178.1c-0.7,0.4-1.5,0.2-1.9-0.6
			c-0.4-0.7-0.1-1.5,0.6-1.9c0.7-0.4,1.6-0.2,2,0.6C369.1,176.9,368.8,177.7,368.1,178.1z"/>
	</g>
	<g class="st2">
		<path class="st3" d="M371.7,193.9c-0.9,0.3-1.8,0.7-3.2,1.3l-6.7,3c-2.7,1.2-4.5,1.4-6,0.8c-1.6-0.6-2.6-2.1-3.3-3.6
			c-0.6-1.4-1-3.1-0.8-4.3l1.8-0.2c-0.1,1,0,2.4,0.6,3.8c1,2.2,2.8,3.2,5.7,1.9l1.3-0.6l0,0c-1.4-0.2-2.8-1-3.6-2.8
			c-1.3-2.9,0.2-6,3.4-7.5c3.9-1.8,7.3-0.2,8.5,2.4c0.9,2,0.4,3.6-0.4,4.5l0,0l1.8-0.7L371.7,193.9z M366.1,193.8
			c0.4-0.2,0.7-0.3,0.9-0.6c1-0.9,1.6-2.4,0.9-3.9c-0.9-2-3.3-2.7-5.9-1.5c-2.3,1-3.6,3-2.6,5.3c0.6,1.3,1.9,2.1,3.5,1.9
			c0.4,0,0.8-0.2,1.2-0.3L366.1,193.8z"/>
	</g>
	<g class="st2">
		<path class="st3" d="M370.2,199.7c1.2-0.4,2.3-0.8,3.2-1.2l0.6,1.9l-2,0.8l0,0c1.3,0.2,2.9,1.3,3.6,3.2c0.5,1.7,0.4,4.6-3.7,5.9
			l-7.2,2.4l-0.7-2.2l7-2.3c1.9-0.6,3.3-1.9,2.7-4c-0.5-1.4-1.9-2.2-3.2-2.2c-0.3,0-0.7,0.1-1.1,0.2l-7.3,2.4l-0.7-2.2L370.2,199.7z
			"/>
	</g>
	<g class="st2">
		<path class="st3" d="M384.7,279.3c-0.1,1.1-0.2,2.6-0.6,4.4c-0.5,2.2-1.4,3.7-2.5,4.5c-1,0.8-2.4,1-3.9,0.7
			c-1.6-0.4-2.7-1.1-3.4-2.2c-1-1.5-1.2-3.5-0.7-5.7c0.1-0.7,0.3-1.3,0.6-1.8l-6.9-1.5l0.5-2.2L384.7,279.3z M375.9,279.7
			c-0.2,0.5-0.4,1.1-0.6,1.8c-0.6,2.7,0.3,4.6,2.7,5.2c2.3,0.5,3.7-0.9,4.3-3.3c0.2-1,0.3-1.7,0.3-2.1L375.9,279.7z"/>
	</g>
	<g class="st2">
		<path class="st3" d="M382.2,294.5l-0.7,2.2l-17.9-5.4l0.7-2.2L382.2,294.5z"/>
	</g>
	<g class="st2">
		<path class="st3" d="M359.9,301.8l1.6,0.4l0-0.1c-0.7-1-1-2.6-0.4-4.3c0.9-2.4,3.1-3,4.8-2.3c2.9,1.1,3.5,4.2,1.7,8.8l0.2,0.1
			c1,0.4,2.8,0.8,3.8-1.7c0.4-1.1,0.5-2.4,0.3-3.4l1.6,0.1c0.3,1.2,0.1,2.8-0.4,4.3c-1.4,3.6-4.2,3.6-6.6,2.7l-4.4-1.7
			c-1-0.4-2.1-0.7-2.9-0.9L359.9,301.8z M366.1,303.8c0.9-2.3,1.5-5.2-0.8-6c-1.4-0.5-2.4,0.1-2.8,1.3c-0.6,1.5,0,2.9,0.9,3.6
			c0.2,0.2,0.4,0.3,0.6,0.4L366.1,303.8z"/>
	</g>
	<g class="st2">
		<path class="st3" d="M366,311.2c1.2,0.6,2.1,1,3.1,1.4l-0.9,1.8l-1.9-0.8l0,0c0.8,1.1,1.2,2.9,0.3,4.8c-0.8,1.6-2.9,3.5-6.8,1.6
			l-6.8-3.4l1-2.1l6.6,3.3c1.8,0.9,3.7,1,4.7-1c0.7-1.4,0.2-2.9-0.7-3.8c-0.2-0.2-0.5-0.4-0.9-0.6l-6.8-3.4l1-2.1L366,311.2z"/>
	</g>
	<g class="st2">
		<path class="st3" d="M378.5,398.4c1.3-0.2,2.9-0.3,4.6-0.3c3.1,0,5.3,0.7,6.8,2.1c1.5,1.4,2.4,3.3,2.4,6c0,2.8-0.8,5-2.4,6.5
			c-1.6,1.6-4.2,2.4-7.4,2.4c-1.5,0-2.8-0.1-3.9-0.2V398.4z M380.7,413.3c0.5,0.1,1.3,0.1,2.2,0.1c4.6,0,7.2-2.6,7.2-7.1
			c0-4-2.2-6.5-6.8-6.5c-1.1,0-2,0.1-2.5,0.2V413.3z"/>
	</g>
	<g class="st2">
		<path class="st3" d="M396.9,409.4c0,3,2,4.2,4.1,4.2c1.6,0,2.5-0.3,3.3-0.6l0.4,1.6c-0.8,0.3-2.1,0.8-4,0.8
			c-3.7,0-5.9-2.4-5.9-6.1s2.1-6.5,5.7-6.5c3.9,0,5,3.5,5,5.7c0,0.5,0,0.8-0.1,1H396.9z M403.4,407.8c0-1.4-0.6-3.6-3-3.6
			c-2.2,0-3.2,2-3.4,3.6H403.4z"/>
		<path class="st3" d="M408.8,406.9c0-1.5-0.1-2.8-0.1-3.9h2l0.1,2.1h0c0.9-1.5,2.3-2.3,4.3-2.3c2.9,0,5.1,2.5,5.1,6.1
			c0,4.3-2.6,6.5-5.5,6.5c-1.6,0-3-0.7-3.7-1.9h0v6.6h-2.2V406.9z M410.9,410.1c0,0.3,0,0.6,0.1,0.9c0.4,1.5,1.7,2.6,3.3,2.6
			c2.3,0,3.7-1.9,3.7-4.7c0-2.4-1.3-4.5-3.6-4.5c-1.5,0-2.9,1.1-3.3,2.7c-0.1,0.3-0.2,0.6-0.2,0.9V410.1z"/>
		<path class="st3" d="M423.5,397.3h2.2v17.7h-2.2V397.3z"/>
	</g>
	<g class="st2">
		<path class="st3" d="M440.9,408.9c0,4.5-3.1,6.4-6,6.4c-3.3,0-5.8-2.4-5.8-6.2c0-4,2.6-6.4,6-6.4
			C438.6,402.7,440.9,405.2,440.9,408.9z M431.3,409c0,2.6,1.5,4.6,3.7,4.6c2.1,0,3.7-2,3.7-4.7c0-2-1-4.6-3.6-4.6
			S431.3,406.7,431.3,409z"/>
	</g>
	<g class="st2">
		<path class="st3" d="M444.8,403l2.6,7.1c0.3,0.8,0.6,1.8,0.8,2.5h0.1c0.2-0.7,0.5-1.6,0.8-2.5l2.4-7.1h2.3l-3.3,8.6
			c-1.6,4.1-2.6,6.3-4.1,7.6c-1.1,1-2.1,1.3-2.7,1.4l-0.5-1.8c0.5-0.2,1.3-0.5,1.9-1.1c0.6-0.5,1.3-1.3,1.8-2.4
			c0.1-0.2,0.2-0.4,0.2-0.5s0-0.3-0.2-0.6l-4.5-11.1H444.8z"/>
	</g>
</g>
</svg>
