<svg height="512" viewBox="0 0 256 256" width="512" xmlns="http://www.w3.org/2000/svg"><path d="m203.718 221.417a2.5 2.5 0 0 1 -2.5-2.5v-19.334h-85a2.5 2.5 0 0 1 0-5h87.5a2.5 2.5 0 0 1 2.5 2.5v15.8l26.693-26.694-26.693-26.695v16.09a2.5 2.5 0 0 1 -2.5 2.5h-32.93a2.5 2.5 0 0 1 0-5h30.431v-19.626a2.5 2.5 0 0 1 4.267-1.768l32.729 32.73a2.5 2.5 0 0 1 0 3.535l-32.729 32.73a2.5 2.5 0 0 1 -1.768.732z" fill="#ed9abc"/><g fill="#846f75"><path d="m116.219 34.583a82.594 82.594 0 0 0 -82.5 82.5 81.727 81.727 0 0 0 8.3 36.1 2.5 2.5 0 0 0 4.495-2.192 76.749 76.749 0 0 1 -7.791-33.908 77.5 77.5 0 1 1 77.5 77.5h-34.377a2.5 2.5 0 0 0 0 5h34.373a82.5 82.5 0 0 0 0-165z"/><path d="m172.219 117.083a56.063 56.063 0 0 1 -56 56h-34.373a2.5 2.5 0 0 0 0 5h34.373a60.991 60.991 0 1 0 -48.881-24.5 2.5 2.5 0 0 0 4-2.994 56 56 0 1 1 100.877-33.5z"/><path d="m70.587 194.584h-11.258a2.5 2.5 0 0 0 0 5h11.258a2.5 2.5 0 0 0 0-5z"/><path d="m48.07 194.584h-11.259a2.5 2.5 0 0 0 0 5h11.259a2.5 2.5 0 0 0 0-5z"/><path d="m25.552 194.584h-6a2.5 2.5 0 1 0 0 5h6a2.5 2.5 0 0 0 0-5z"/><path d="m70.587 173.084h-11.258a2.5 2.5 0 0 0 0 5h11.258a2.5 2.5 0 0 0 0-5z"/><path d="m48.07 173.084h-11.259a2.5 2.5 0 0 0 0 5h11.259a2.5 2.5 0 0 0 0-5z"/><path d="m25.552 173.084h-6a2.5 2.5 0 1 0 0 5h6a2.5 2.5 0 0 0 0-5z"/></g><path d="m116.344 148.081a31 31 0 1 1 30.53-36.385 2.5 2.5 0 1 1 -4.925.864 26 26 0 1 0 .006 9.014 2.5 2.5 0 1 1 4.926.858 30.923 30.923 0 0 1 -30.537 25.649z" fill="#ebe7f2"/><path d="m116.344 129.9a12.829 12.829 0 1 1 10.427-20.274h28.512a7.436 7.436 0 0 1 0 14.872h-28.483a12.8 12.8 0 0 1 -10.454 5.4zm0-20.638a7.823 7.823 0 1 0 6.872 11.544 2.5 2.5 0 0 1 2.2-1.309h29.869a2.436 2.436 0 1 0 0-4.872h-29.893a2.5 2.5 0 0 1 -2.193-1.3 7.782 7.782 0 0 0 -6.855-4.064z" fill="#ed9abc"/></svg>