<svg id="Capa_1" enable-background="new 0 0 512 512" height="512" viewBox="0 0 512 512" width="512" xmlns="http://www.w3.org/2000/svg"><g><g><path d="m465.233 406.921c21.686 0 39.266 17.58 39.266 39.266v-325.632c0-17.246-13.98-31.226-31.226-31.226h-435.773l22.067 317.592h346.4 20z" fill="#e7ecf6"/></g><path d="m473.274 89.329h-24.595c17.246 0 31.226 13.98 31.226 31.226v289.21c14.416 5.813 24.594 19.925 24.594 36.422v-325.632c0-17.246-13.98-31.226-31.225-31.226z" fill="#d8e2f1"/><path d="m7.5 365.353v-283.292c0-30.66 24.855-55.516 55.516-55.516h14.537v305.734l-14.075 74.642h-14.41c-22.958 0-41.568-18.611-41.568-41.568z" fill="#c3d5ef"/><path d="m63.015 26.546c-1.999 0-3.972.111-5.916.317v380.058h10.227l10.227-74.642v-305.733z" fill="#b7c8ea"/><path d="m405.967 478.464v-71.543h59.266c21.686 0 39.266 17.58 39.266 39.266 0 21.686-17.58 39.266-39.266 39.266h-52.276c-3.861.001-6.99-3.129-6.99-6.989z" fill="#c3d5ef"/><path d="m465.233 406.921h-59.266v20.292h59.266.135c8.522.029 15.545 6.72 16.356 15.203.119 1.241.179 2.499.179 3.771 0 21.686-17.58 39.266-39.266 39.266h22.596c19.854 0 36.256-14.738 38.888-33.867 3.292-23.657-15.116-44.665-38.888-44.665z" fill="#b7c8ea"/><path d="m77.552 406.921h-32.732c-20.611 0-37.32-16.709-37.32-37.321 0-20.612 16.709-37.321 37.321-37.321h32.732v74.642z" fill="#e7ecf6"/><g><path d="m299.968 318.356-7.258 16.599h-23.421l-7.258-16.599-22.488-9.315-16.87 6.605-16.561-16.561 6.605-16.87-9.315-22.488-16.599-7.258v-23.421l16.599-7.258 9.315-22.488-6.605-16.87 16.561-16.561 16.87 6.605 22.488-9.315 7.258-16.599h23.421l7.258 16.599 22.488 9.315 16.87-6.605 16.561 16.561-6.605 16.87 9.315 22.488 16.599 7.258v23.421l-16.599 7.258-9.315 22.488 6.605 16.87-16.561 16.561-16.87-6.605zm20.718-77.598c0-21.918-17.768-39.687-39.687-39.687s-39.687 17.768-39.687 39.687 17.768 39.687 39.687 39.687 39.687-17.769 39.687-39.687z" fill="#80b4fb"/><g><path d="m358.597 221.79-9.315-22.488 6.605-16.87-16.561-16.561-14.134 5.534 6.566 6.566c2.71 2.71 3.558 6.767 2.161 10.335l-2.889 7.378c-.909 2.321-.884 4.904.07 7.207l6.342 15.31c.954 2.303 2.762 4.147 5.046 5.145l7.26 3.174c3.511 1.535 5.78 5.004 5.78 8.836v10.804c0 3.832-2.269 7.301-5.78 8.836l-7.26 3.174c-2.284.999-4.092 2.843-5.046 5.145l-6.342 15.31c-.954 2.303-.979 4.886-.07 7.207l2.889 7.378c1.397 3.568.549 7.625-2.161 10.335l-6.566 6.566 14.134 5.534 16.561-16.561-6.605-16.87 9.315-22.488 16.599-7.258v-23.421z" fill="#61a2f9"/></g></g><g><path d="m511.999 446.168v-325.613c0-21.354-17.372-38.726-38.726-38.726h-72.55c-4.143 0-7.5 3.357-7.5 7.5s3.357 7.5 7.5 7.5h72.55c13.082 0 23.726 10.644 23.726 23.726v291.34c-8.347-7.738-19.513-12.474-31.766-12.474-17.365 0-402.951 0-416.165 0-18.047 0-32.853-14.107-33.99-31.872 1.058-15.489 13.989-27.77 29.742-27.77h32.732c4.143 0 7.5-3.357 7.5-7.5 0-.169-.014-.334-.025-.5.011-.166.025-.331.025-.5v-234.45h285.685c4.143 0 7.5-3.357 7.5-7.5s-3.357-7.5-7.5-7.5h-285.684v-55.283c0-4.143-3.357-7.5-7.5-7.5h-14.537c-34.747 0-63.016 28.268-63.016 63.016v170.298c0 4.143 3.357 7.5 7.5 7.5s7.5-3.357 7.5-7.5v-170.298c0-26.476 21.54-48.016 48.016-48.016h7.037v290.733h-25.233c-11.442 0-21.892 4.316-29.82 11.397v-52.101c0-4.143-3.357-7.5-7.5-7.5s-7.5 3.357-7.5 7.5c.01 33.585 0 27.782 0 85.524 0 24.714 20.106 44.82 44.82 44.82h353.646v64.043c0 7.99 6.5 14.49 14.49 14.49h52.276c25.787 0 46.767-20.979 46.767-46.767.001-.004 0-.01 0-.017zm-46.766 31.786h-51.767v-63.533h51.767c17.516 0 31.766 14.25 31.766 31.767 0 .004.001.009.001.013-.007 17.51-14.254 31.753-31.767 31.753z"/><path d="m364.37 216.129-7.003-16.906 5.504-14.057c1.087-2.775.428-5.931-1.68-8.038l-16.562-16.562c-2.107-2.106-5.263-2.766-8.038-1.68l-14.057 5.504-16.906-7.003-6.047-13.831c-1.194-2.73-3.892-4.495-6.872-4.495h-23.421c-2.98 0-5.678 1.765-6.872 4.495l-6.047 13.831-16.906 7.003-14.057-5.504c-2.772-1.086-5.93-.427-8.038 1.681l-16.561 16.562c-2.107 2.107-2.767 5.262-1.68 8.037l5.504 14.057-7.003 16.906-13.832 6.047c-2.73 1.194-4.495 3.892-4.495 6.872v23.421c0 2.98 1.765 5.678 4.495 6.872l13.832 6.047 7.003 16.906-5.504 14.057c-1.087 2.775-.428 5.931 1.68 8.038l16.561 16.561c2.106 2.105 5.261 2.768 8.038 1.68l14.057-5.504 16.906 7.003 6.047 13.832c1.194 2.73 3.892 4.495 6.872 4.495h23.421c2.98 0 5.678-1.765 6.872-4.495l6.047-13.832 16.906-7.003 14.057 5.504c2.775 1.088 5.931.428 8.037-1.68l16.562-16.561c2.108-2.107 2.768-5.263 1.681-8.038l-5.504-14.057 7.003-16.906 13.831-6.047c2.73-1.194 4.495-3.892 4.495-6.872v-23.421c0-2.98-1.765-5.678-4.495-6.872zm3.326 31.433-12.104 5.292c-1.776.776-3.183 2.211-3.924 4.002l-9.314 22.488c-.742 1.791-.762 3.8-.055 5.604l4.816 12.302-9.623 9.622-12.302-4.816c-1.805-.707-3.813-.688-5.604.055l-22.488 9.315c-1.791.741-3.226 2.148-4.002 3.924l-5.292 12.104h-13.608l-5.292-12.104c-.776-1.775-2.211-3.183-4.002-3.924l-22.488-9.315c-1.791-.743-3.802-.763-5.604-.055l-12.302 4.816-9.622-9.622 4.816-12.302c.707-1.805.688-3.813-.055-5.604l-9.315-22.488c-.741-1.791-2.148-3.226-3.924-4.002l-12.104-5.292v-13.608l12.104-5.292c1.775-.776 3.183-2.211 3.924-4.002l9.315-22.488c.742-1.791.762-3.8.055-5.604l-4.816-12.302 9.622-9.623 12.302 4.816c1.804.707 3.813.688 5.604-.055l22.488-9.314c1.791-.741 3.226-2.147 4.002-3.924l5.292-12.104h13.608l5.292 12.104c.776 1.776 2.211 3.183 4.002 3.924l22.488 9.314c1.792.742 3.8.762 5.604.055l12.302-4.816 9.623 9.623-4.816 12.302c-.707 1.805-.688 3.813.055 5.604l9.314 22.488c.741 1.791 2.147 3.226 3.924 4.002l12.104 5.292z"/><path d="m281 208.571c13.136 0 24.834 7.862 29.803 20.029 1.566 3.834 5.942 5.672 9.779 4.107 3.834-1.566 5.674-5.944 4.107-9.779-7.283-17.834-24.433-29.357-43.689-29.357-26.019 0-47.187 21.168-47.187 47.187s21.168 47.187 47.187 47.187c19.257 0 36.406-11.523 43.689-29.356 1.566-3.835-.273-8.213-4.107-9.779-3.838-1.565-8.215.272-9.779 4.107-4.969 12.167-16.667 20.028-29.803 20.028-17.748 0-32.187-14.438-32.187-32.187s14.439-32.187 32.187-32.187z"/></g></g></svg>