<svg id="icons" enable-background="new 0 0 64 64" height="512" viewBox="0 0 64 64" width="512" xmlns="http://www.w3.org/2000/svg"><path d="m40.5 52.006c.83 0 1.5.67 1.5 1.5 0 .828-.67 1.5-1.5 1.5h-17.01c-.83 0-1.5-.672-1.5-1.5 0-.83.67-1.5 1.5-1.5z" fill="#656d78"/><path d="m63 6.994v2h-62v-2c0-1.1.89-2 2-2h58c1.11 0 2 .901 2 2z" fill="#ccd1d9"/><path d="m63 8.994v50.012h-62v-50.012zm-17 18c0-7.729-6.27-14-14-14s-14 6.271-14 14c0 7.74 6.27 14 14 14s14-6.26 14-14zm-4 26.512c0-.83-.67-1.5-1.5-1.5h-17.01c-.83 0-1.5.67-1.5 1.5 0 .828.67 1.5 1.5 1.5h17.01c.83 0 1.5-.672 1.5-1.5z" fill="#e6e9ed"/><path d="m32 12.994c7.73 0 14 6.271 14 14 0 7.74-6.27 14-14 14s-14-6.26-14-14c0-7.728 6.27-14 14-14z" fill="#a0d468"/><path d="m32 12.994c-.508 0-1.008.031-1.502.084 7.024.75 12.499 6.695 12.499 13.916 0 7.232-5.475 13.168-12.499 13.918.494.053.994.082 1.502.082 7.73 0 14-6.26 14-14 0-7.728-6.27-14-14-14z" fill="#8cc152"/><path d="m1 7.998c-.553 0-1-.447-1-1 0-1.654 1.346-3 3-3 .553 0 1 .447 1 1s-.447 1-1 1c-.552 0-1 .448-1 1 0 .553-.447 1-1 1z"/><path d="m63 7.998c-.553 0-1-.447-1-1 0-.552-.448-1-1-1-.553 0-1-.447-1-1s.447-1 1-1c1.654 0 3 1.346 3 3 0 .553-.447 1-1 1z"/><path d="m61 5.998h-58c-.553 0-1-.447-1-1s.447-1 1-1h58c.553 0 1 .447 1 1s-.447 1-1 1z"/><path d="m4.03 7.998c-.553 0-1.005-.447-1.005-1s.442-1 .994-1h.011c.552 0 1 .447 1 1s-.448 1-1 1z"/><path d="m7.029 7.998c-.553 0-1.005-.447-1.005-1s.442-1 .994-1h.011c.552 0 1 .447 1 1s-.448 1-1 1z"/><path d="m10.032 7.998c-.553 0-1.005-.447-1.005-1s.442-1 .994-1h.011c.552 0 1 .447 1 1s-.448 1-1 1z"/><path d="m1 60.002c-.553 0-1-.447-1-1v-52.004c0-.553.447-1 1-1s1 .447 1 1v52.004c0 .553-.447 1-1 1z"/><path d="m63 60.002c-.553 0-1-.447-1-1v-52.004c0-.553.447-1 1-1s1 .447 1 1v52.004c0 .553-.447 1-1 1z"/><path d="m63 9.998h-62c-.553 0-1-.447-1-1s.447-1 1-1h62c.553 0 1 .447 1 1s-.447 1-1 1z"/><path d="m63 60.002h-62c-.553 0-1-.447-1-1s.447-1 1-1h62c.553 0 1 .447 1 1s-.447 1-1 1z"/><path d="m32 41.998c-8.271 0-15-6.729-15-15.001s6.729-15 15-15 15 6.729 15 15-6.729 15.001-15 15.001zm0-28.001c-7.168 0-13 5.832-13 13 0 7.169 5.832 13.001 13 13.001s13-5.832 13-13.001c0-7.168-5.832-13-13-13z"/><path d="m40.505 56.005h-17.014c-.553 0-1-.447-1-1s.447-1 1-1h17.014c.553 0 1 .447 1 1s-.447 1-1 1z"/><path d="m40.505 53.005h-17.014c-.553 0-1-.447-1-1s.447-1 1-1h17.014c.553 0 1 .447 1 1s-.447 1-1 1z"/><path d="m23.491 56.005c-1.379 0-2.5-1.121-2.5-2.5s1.121-2.5 2.5-2.5c.553 0 1 .447 1 1s-.447 1-1 1c-.275 0-.5.225-.5.5s.225.5.5.5c.553 0 1 .447 1 1s-.447 1-1 1z"/><path d="m40.505 56.005c-.553 0-1-.447-1-1s.447-1 1-1c.275 0 .5-.225.5-.5s-.225-.5-.5-.5c-.553 0-1-.447-1-1s.447-1 1-1c1.379 0 2.5 1.121 2.5 2.5s-1.121 2.5-2.5 2.5z"/><path d="m55.005 46.008h-46.014c-.553 0-1-.447-1-1s.447-1 1-1h46.014c.553 0 1 .447 1 1s-.447 1-1 1z"/><path d="m46.003 49.009h-28.01c-.553 0-1-.447-1-1s.447-1 1-1h28.01c.553 0 1 .447 1 1s-.447 1-1 1z"/><path d="m29.999 32.997c-.256 0-.512-.098-.707-.293l-3.997-3.997c-.391-.391-.391-1.023 0-1.414s1.023-.391 1.414 0l3.997 3.997c.391.391.391 1.023 0 1.414-.195.195-.451.293-.707.293z"/><path d="m29.999 32.997c-.256 0-.512-.098-.707-.293-.391-.391-.391-1.023 0-1.414l8.999-8.999c.391-.391 1.023-.391 1.414 0s.391 1.023 0 1.414l-8.999 8.999c-.195.195-.451.293-.707.293z"/></svg>