<svg id="Layer_2" enable-background="new 0 0 64 64" height="512" viewBox="0 0 64 64" width="512" xmlns="http://www.w3.org/2000/svg"><path d="m10.577 13.246h17.25v28.202h-17.25z" fill="#db785a"/><path d="m27.827 41.948h-17.25c-.276 0-.5-.224-.5-.5v-28.202c0-.276.224-.5.5-.5h17.25c.276 0 .5.224.5.5v28.202c0 .276-.223.5-.5.5zm-16.75-1h16.25v-27.202h-16.25z" fill="#63312d"/><path d="m4.577 13.246h17.25v28.202h-17.25z" fill="#f9a287"/><path d="m4.577 13.246h2v28.202h-2z" fill="#ffc8bb"/><path d="m21.827 41.948h-17.25c-.276 0-.5-.224-.5-.5v-28.202c0-.276.224-.5.5-.5h17.25c.276 0 .5.224.5.5v28.202c0 .276-.223.5-.5.5zm-16.75-1h16.25v-27.202h-16.25z" fill="#63312d"/><path d="m60.744 52.844h-9.125l-6-9.688h6z" fill="#db785a"/><path d="m60.744 53.344h-9.125c-.173 0-.334-.089-.425-.237l-6-9.688c-.095-.154-.1-.348-.012-.506.088-.159.255-.257.437-.257h6c.138 0 .27.057.364.157l9.125 9.688c.137.145.174.358.095.541s-.26.302-.459.302zm-8.847-1h7.689l-8.183-8.688h-4.886z" fill="#63312d"/><path d="m27.827 42.906c0 1.1.9 2 2 2h22.854c1.1 0 2-.9 2-2v-16.562c0-1.1-.9-2-2-2h-22.854c-1.1 0-2 .9-2 2z" fill="#efc36a"/><path d="m52.681 45.406h-22.854c-1.378 0-2.5-1.122-2.5-2.5v-16.562c0-1.378 1.122-2.5 2.5-2.5h22.854c1.378 0 2.5 1.122 2.5 2.5v16.563c0 1.378-1.121 2.499-2.5 2.499zm-22.854-20.562c-.827 0-1.5.673-1.5 1.5v16.563c0 .827.673 1.5 1.5 1.5h22.854c.827 0 1.5-.673 1.5-1.5v-16.563c0-.827-.673-1.5-1.5-1.5z" fill="#63312d"/><path d="m21.827 15.974h6v5.721h-6z" fill="#d1d1d1"/><path d="m27.827 22.195h-6c-.276 0-.5-.224-.5-.5v-5.721c0-.276.224-.5.5-.5h6c.276 0 .5.224.5.5v5.721c0 .276-.223.5-.5.5zm-5.5-1h5v-4.721h-5z" fill="#63312d"/><path d="m7.536 15.974h14.291v5.721h-14.291z" fill="#f8f3f3"/><path d="m21.827 22.195h-14.291c-.276 0-.5-.224-.5-.5v-5.721c0-.276.224-.5.5-.5h14.292c.276 0 .5.224.5.5v5.721c-.001.276-.224.5-.501.5zm-13.791-1h13.292v-4.721h-13.292z" fill="#63312d"/><ellipse cx="52.619" cy="34.563" fill="#f9a287" rx="3.938" ry="8.594"/><path d="m50.681 34.563c0-3.991 1.248-7.336 2.938-8.303-.32-.183-.654-.291-1-.291-2.175 0-3.938 3.848-3.938 8.594s1.763 8.594 3.938 8.594c.346 0 .68-.107 1-.291-1.69-.968-2.938-4.313-2.938-8.303z" fill="#ffc8bb"/><path d="m52.619 43.656c-2.488 0-4.438-3.995-4.438-9.094s1.949-9.094 4.438-9.094 4.438 3.995 4.438 9.094-1.95 9.094-4.438 9.094zm0-17.187c-1.66 0-3.438 3.252-3.438 8.094s1.777 8.094 3.438 8.094 3.438-3.252 3.438-8.094-1.778-8.094-3.438-8.094z" fill="#63312d"/><path d="m7.536 24.344h11.333v8.917h-11.333z" fill="#f8f3f3"/><path d="m18.869 33.761h-11.333c-.276 0-.5-.224-.5-.5v-8.917c0-.276.224-.5.5-.5h11.333c.276 0 .5.224.5.5v8.917c0 .276-.224.5-.5.5zm-10.833-1h10.333v-7.917h-10.333z" fill="#63312d"/><path d="m9.257 8.104h19.89v5.142h-19.89z" fill="#efc36a"/><path d="m29.147 13.746h-19.89c-.276 0-.5-.224-.5-.5v-5.142c0-.276.224-.5.5-.5h19.89c.276 0 .5.224.5.5v5.142c0 .276-.224.5-.5.5zm-19.39-1h18.89v-4.142h-18.89z" fill="#63312d"/><path d="m3.257 8.104h19.89v5.142h-19.89z" fill="#f9dd9d"/><path d="m5.257 10.104h17.89v-2h-19.89v5.142h2z" fill="#ffeecf"/><path d="m23.147 13.746h-19.89c-.276 0-.5-.224-.5-.5v-5.142c0-.276.224-.5.5-.5h19.89c.276 0 .5.224.5.5v5.142c0 .276-.224.5-.5.5zm-19.39-1h18.89v-4.142h-18.89z" fill="#63312d"/><path d="m21.827 42.906c0 1.1.9 2 2 2h22.854c1.1 0 2-.9 2-2v-16.562c0-1.1-.9-2-2-2h-22.854c-1.1 0-2 .9-2 2z" fill="#f9dd9d"/><path d="m25.827 26.344h22.854c0-1.1-.9-2-2-2h-22.854c-1.1 0-2 .9-2 2v16.563c0 1.1.9 2 2 2v-16.563c0-1.1.9-2 2-2z" fill="#ffeecf"/><path d="m46.681 45.406h-22.854c-1.378 0-2.5-1.122-2.5-2.5v-16.562c0-1.378 1.122-2.5 2.5-2.5h22.854c1.378 0 2.5 1.122 2.5 2.5v16.563c0 1.378-1.121 2.499-2.5 2.499zm-22.854-20.562c-.827 0-1.5.673-1.5 1.5v16.563c0 .827.673 1.5 1.5 1.5h22.854c.827 0 1.5-.673 1.5-1.5v-16.563c0-.827-.673-1.5-1.5-1.5z" fill="#63312d"/><path d="m5.569 44.906h40.05v4.906h-40.05z" fill="#db785a"/><path d="m45.619 50.313h-40.05c-.276 0-.5-.224-.5-.5v-4.906c0-.276.224-.5.5-.5h40.05c.276 0 .5.224.5.5v4.906c0 .276-.224.5-.5.5zm-39.55-1h39.05v-3.906h-39.05z" fill="#63312d"/><path d="m3.195 41.448h42.424v3.458h-42.424z" fill="#f8f3f3"/><path d="m45.619 45.406h-42.424c-.276 0-.5-.224-.5-.5v-3.458c0-.276.224-.5.5-.5h42.424c.276 0 .5.224.5.5v3.458c0 .277-.224.5-.5.5zm-41.924-1h41.424v-2.458h-41.424z" fill="#63312d"/><path d="m19.427 49.811c0 2.711-2.196 4.908-4.905 4.908-2.711 0-4.906-2.197-4.906-4.908 0-2.708 2.195-4.905 4.906-4.905 2.709 0 4.905 2.197 4.905 4.905z" fill="#84dbff"/><path d="m14.522 55.219c-2.981 0-5.406-2.426-5.406-5.408 0-2.98 2.425-5.405 5.406-5.405 2.98 0 5.405 2.425 5.405 5.405 0 2.982-2.425 5.408-5.405 5.408zm0-9.813c-2.43 0-4.406 1.976-4.406 4.405 0 2.431 1.977 4.408 4.406 4.408s4.405-1.977 4.405-4.408c0-2.429-1.976-4.405-4.405-4.405z" fill="#63312d"/><path d="m14.523 54.719c2.709 0 4.905-2.197 4.905-4.908 0-2.708-2.196-4.905-4.905-4.905h-2.761v9.813z" fill="#52b8d9"/><path d="m14.522 55.219h-2.761c-.276 0-.5-.224-.5-.5v-9.813c0-.276.224-.5.5-.5h2.761c2.98 0 5.405 2.425 5.405 5.405 0 2.982-2.425 5.408-5.405 5.408zm-2.261-1h2.261c2.429 0 4.405-1.977 4.405-4.408 0-2.429-1.976-4.405-4.405-4.405h-2.261z" fill="#63312d"/><path d="m16.667 49.811c0 2.711-2.196 4.908-4.906 4.908s-4.906-2.197-4.906-4.908c0-2.708 2.196-4.905 4.906-4.905s4.906 2.197 4.906 4.905z" fill="#84dbff"/><path d="m11.761 55.219c-2.981 0-5.406-2.426-5.406-5.408 0-2.98 2.425-5.405 5.406-5.405s5.406 2.425 5.406 5.405c0 2.982-2.425 5.408-5.406 5.408zm0-9.813c-2.429 0-4.406 1.976-4.406 4.405 0 2.431 1.977 4.408 4.406 4.408s4.406-1.977 4.406-4.408c0-2.429-1.977-4.405-4.406-4.405z" fill="#63312d"/><path d="m13.682 49.811c0 1.063-.859 1.921-1.92 1.921-1.06 0-1.919-.859-1.919-1.921 0-1.06.859-1.919 1.919-1.919 1.061 0 1.92.859 1.92 1.919z" fill="#f8f3f3"/><path d="m11.761 52.232c-1.334 0-2.419-1.086-2.419-2.421 0-1.334 1.085-2.419 2.419-2.419s2.42 1.085 2.42 2.419c.001 1.335-1.085 2.421-2.42 2.421zm0-3.84c-.783 0-1.419.637-1.419 1.419 0 .784.637 1.421 1.419 1.421.783 0 1.42-.638 1.42-1.421.001-.783-.637-1.419-1.42-1.419z" fill="#63312d"/><path d="m32.01 49.811c0 2.711-2.196 4.908-4.905 4.908-2.711 0-4.906-2.197-4.906-4.908 0-2.708 2.195-4.905 4.906-4.905 2.709 0 4.905 2.197 4.905 4.905z" fill="#84dbff"/><path d="m27.105 55.219c-2.981 0-5.406-2.426-5.406-5.408 0-2.98 2.425-5.405 5.406-5.405 2.98 0 5.405 2.425 5.405 5.405 0 2.982-2.425 5.408-5.405 5.408zm0-9.813c-2.43 0-4.406 1.976-4.406 4.405 0 2.431 1.977 4.408 4.406 4.408s4.405-1.977 4.405-4.408c0-2.429-1.976-4.405-4.405-4.405z" fill="#63312d"/><path d="m27.105 54.719c2.709 0 4.905-2.197 4.905-4.908 0-2.708-2.196-4.905-4.905-4.905h-2.761v9.813z" fill="#52b8d9"/><path d="m27.105 55.219h-2.761c-.276 0-.5-.224-.5-.5v-9.813c0-.276.224-.5.5-.5h2.761c2.98 0 5.405 2.425 5.405 5.405 0 2.982-2.425 5.408-5.405 5.408zm-2.261-1h2.261c2.429 0 4.405-1.977 4.405-4.408 0-2.429-1.976-4.405-4.405-4.405h-2.261z" fill="#63312d"/><path d="m29.25 49.811c0 2.711-2.196 4.908-4.906 4.908s-4.906-2.197-4.906-4.908c0-2.708 2.196-4.905 4.906-4.905s4.906 2.197 4.906 4.905z" fill="#84dbff"/><path d="m24.344 55.219c-2.981 0-5.406-2.426-5.406-5.408 0-2.98 2.425-5.405 5.406-5.405s5.406 2.425 5.406 5.405c0 2.982-2.425 5.408-5.406 5.408zm0-9.813c-2.429 0-4.406 1.976-4.406 4.405 0 2.431 1.977 4.408 4.406 4.408s4.406-1.977 4.406-4.408c0-2.429-1.977-4.405-4.406-4.405z" fill="#63312d"/><path d="m26.265 49.811c0 1.063-.859 1.921-1.92 1.921-1.06 0-1.919-.859-1.919-1.921 0-1.06.859-1.919 1.919-1.919 1.061 0 1.92.859 1.92 1.919z" fill="#f8f3f3"/><path d="m24.344 52.232c-1.334 0-2.419-1.086-2.419-2.421 0-1.334 1.085-2.419 2.419-2.419s2.42 1.085 2.42 2.419c.001 1.335-1.085 2.421-2.42 2.421zm0-3.84c-.783 0-1.419.637-1.419 1.419 0 .784.637 1.421 1.419 1.421.783 0 1.42-.638 1.42-1.421.001-.783-.637-1.419-1.42-1.419z" fill="#63312d"/><path d="m44.582 49.811c0 2.711-2.196 4.908-4.905 4.908-2.711 0-4.906-2.197-4.906-4.908 0-2.708 2.195-4.905 4.906-4.905 2.709 0 4.905 2.197 4.905 4.905z" fill="#84dbff"/><path d="m39.677 55.219c-2.981 0-5.406-2.426-5.406-5.408 0-2.98 2.425-5.405 5.406-5.405 2.98 0 5.405 2.425 5.405 5.405 0 2.982-2.425 5.408-5.405 5.408zm0-9.813c-2.43 0-4.406 1.976-4.406 4.405 0 2.431 1.977 4.408 4.406 4.408s4.405-1.977 4.405-4.408c0-2.429-1.976-4.405-4.405-4.405z" fill="#63312d"/><path d="m39.677 54.719c2.709 0 4.905-2.197 4.905-4.908 0-2.708-2.196-4.905-4.905-4.905h-2.761v9.813z" fill="#52b8d9"/><path d="m39.677 55.219h-2.761c-.276 0-.5-.224-.5-.5v-9.813c0-.276.224-.5.5-.5h2.761c2.98 0 5.405 2.425 5.405 5.405 0 2.982-2.425 5.408-5.405 5.408zm-2.261-1h2.261c2.429 0 4.405-1.977 4.405-4.408 0-2.429-1.976-4.405-4.405-4.405h-2.261z" fill="#63312d"/><path d="m41.822 49.811c0 2.711-2.196 4.908-4.906 4.908s-4.906-2.197-4.906-4.908c0-2.708 2.196-4.905 4.906-4.905s4.906 2.197 4.906 4.905z" fill="#84dbff"/><path d="m36.916 55.219c-2.981 0-5.406-2.426-5.406-5.408 0-2.98 2.425-5.405 5.406-5.405s5.406 2.425 5.406 5.405c0 2.982-2.425 5.408-5.406 5.408zm0-9.813c-2.429 0-4.406 1.976-4.406 4.405 0 2.431 1.977 4.408 4.406 4.408s4.406-1.977 4.406-4.408c0-2.429-1.977-4.405-4.406-4.405z" fill="#63312d"/><path d="m38.836 49.811c0 1.063-.859 1.921-1.92 1.921-1.06 0-1.919-.859-1.919-1.921 0-1.06.859-1.919 1.919-1.919 1.061 0 1.92.859 1.92 1.919z" fill="#f8f3f3"/><path d="m36.916 52.232c-1.334 0-2.419-1.086-2.419-2.421 0-1.334 1.085-2.419 2.419-2.419s2.42 1.085 2.42 2.419c0 1.335-1.086 2.421-2.42 2.421zm0-3.84c-.783 0-1.419.637-1.419 1.419 0 .784.637 1.421 1.419 1.421.783 0 1.42-.638 1.42-1.421s-.637-1.419-1.42-1.419z" fill="#63312d"/><path d="m54.744 52.844h-9.125v-9.688z" fill="#f9a287"/><path d="m54.744 53.344h-9.125c-.276 0-.5-.224-.5-.5v-9.688c0-.205.125-.389.315-.465.191-.075.408-.027.548.122l9.125 9.688c.137.145.174.358.095.541s-.259.302-.458.302zm-8.625-1h7.467l-7.467-7.927z" fill="#63312d"/><path d="m39.681 14.906h7.563v4.174h-7.563z" fill="#52b8d9"/><path d="m47.244 19.581h-7.563c-.276 0-.5-.224-.5-.5v-4.174c0-.276.224-.5.5-.5h7.563c.276 0 .5.224.5.5v4.174c0 .276-.224.5-.5.5zm-7.063-1h6.563v-3.174h-6.563z" fill="#63312d"/><path d="m47.244 19.081h-7.563l-2.062 5.263h7.625z" fill="#d1d1d1"/><path d="m45.244 24.844h-7.625c-.166 0-.32-.082-.413-.218s-.113-.31-.052-.464l2.063-5.263c.075-.191.26-.317.465-.317h7.563c.165 0 .318.081.412.216.093.135.114.308.056.461l-2 5.263c-.076.193-.262.322-.469.322zm-6.892-1h6.547l1.62-4.263h-6.496z" fill="#63312d"/><path d="m33.681 14.906h7.563v4.174h-7.563z" fill="#84dbff"/><path d="m35.681 16.906h5.563v-2h-7.563v4.175h2z" fill="#caf4ff"/><path d="m41.244 19.581h-7.563c-.276 0-.5-.224-.5-.5v-4.174c0-.276.224-.5.5-.5h7.563c.276 0 .5.224.5.5v4.174c0 .276-.224.5-.5.5zm-7.063-1h6.563v-3.174h-6.563z" fill="#63312d"/><path d="m41.244 19.081h-7.563l2 5.263h3.563z" fill="#f8f3f3"/><path d="m39.244 24.844h-3.563c-.208 0-.394-.128-.467-.322l-2-5.263c-.059-.154-.038-.326.056-.461.093-.136.247-.216.412-.216h7.563c.165 0 .318.081.412.216.093.135.114.308.056.461l-2 5.263c-.076.193-.262.322-.469.322zm-3.218-1h2.873l1.62-4.263h-6.112z" fill="#63312d"/></svg>