<svg xmlns="http://www.w3.org/2000/svg" xmlns:xlink="http://www.w3.org/1999/xlink" width="436" height="440" viewBox="0 0 436 440">
  <defs>
    <polygon id="adoption-flow-a" points="127.735 132.082 122.245 123.521 133.226 123.521"/>
    <polygon id="adoption-flow-b" points="127.357 131.615 121.866 123.055 132.848 123.055"/>
    <polygon id="adoption-flow-c" points="127.735 132.082 122.245 123.521 133.226 123.521"/>
    <polygon id="adoption-flow-d" points="127.735 132.082 122.245 123.521 133.226 123.521"/>
  </defs>
  <g fill="none" fill-rule="evenodd">
    <g stroke-linecap="round" stroke-linejoin="round" stroke-width="2.371" transform="translate(13.455 173.663)">
      <polygon stroke="#0595DB" points="42.786 29.352 20.463 29.352 13.022 36.689 13.022 29.352 0 29.352 0 0 42.786 0"/>
      <path stroke="#066796" d="M9.62676411 8.38616071L25.671371 8.38616071M9.62676411 14.6757812L34.2284946 14.6757812M9.62676411 19.9171317L34.2284946 19.9171317"/>
    </g>
    <path fill="#555" d="M190.067729 62.4330658L191.746613 62.4330658 191.746613 74.703125 190.067729 74.703125 190.067729 62.4330658zM195.196263 70.3346832C195.196263 71.2924598 195.399509 72.0943073 195.806007 72.7402496 196.212505 73.386192 196.864006 73.7091583 197.760529 73.7091583 198.456588 73.7091583 199.02874 73.4098576 199.477001 72.8112473 199.925263 72.2126369 200.149391 71.3537135 200.149391 70.2344513 200.149391 69.1040522 199.918303 68.2674023 199.45612 67.7244766 198.993937 67.1815509 198.423177 66.9100922 197.743824 66.9100922 196.986512 66.9100922 196.372598 67.1996482 195.902062 67.7787689 195.431527 68.3578897 195.196263 69.2098526 195.196263 70.3346832zM197.459834 65.5987244C198.144755 65.5987244 198.718299 65.7435024 199.180482 66.0330627 199.447768 66.2001168 199.751245 66.492457 200.090922 66.9100922L200.090922 62.3913025 201.535932 62.3913025 201.535932 74.703125 200.182801 74.703125 200.182801 73.4585785C199.831988 74.0098569 199.417143 74.4079964 198.938255 74.653009 198.459366 74.8980217 197.91088 75.0205261 197.29278 75.0205261 196.296025 75.0205261 195.432925 74.6015051 194.703456 73.7634506 193.973986 72.9253961 193.609257 71.810327 193.609257 70.4182098 193.609257 69.1151882 193.941968 67.9861981 194.6074 67.0312057 195.272832 66.0762134 196.223634 65.5987244 197.459834 65.5987244zM207.483027 65.5569611C208.117832 65.5569611 208.733139 65.7059154 209.328965 66.0038284 209.924791 66.3017415 210.378615 66.6873522 210.690449 67.160672 210.991146 67.611718 211.191608 68.1379303 211.291841 68.739325 211.380936 69.1513916 211.425483 69.8084611 211.425483 70.710553L204.868644 70.710553C204.896486 71.6182134 205.110869 72.3462797 205.511799 72.8947739 205.912729 73.443268 206.533604 73.717511 207.374442 73.717511 208.159597 73.717511 208.78604 73.4585811 209.253791 72.9407135 209.521078 72.6400162 209.710403 72.2919921 209.821772 71.8966309L211.300193 71.8966309C211.261214 72.2251705 211.131749 72.5912918 210.911794 72.9950058 210.69184 73.3987198 210.445439 73.7286466 210.172584 73.9847961 209.71597 74.4302736 209.150778 74.7309664 208.476994 74.8868835 208.115043 74.975979 207.705767 75.0205261 207.249153 75.0205261 206.135459 75.0205261 205.191618 74.6154261 204.4176 73.8052139 203.643583 72.9950017 203.256581 71.8604433 203.256581 70.4015045 203.256581 68.9648396 203.646367 67.7982629 204.425953 66.9017395 205.205539 66.0052161 206.224553 65.5569611 207.483027 65.5569611zM209.880241 69.5161224C209.818988 68.8646116 209.676994 68.3439676 209.454255 67.9541748 209.042188 67.2302739 208.354493 66.8683289 207.391148 66.8683289 206.700658 66.8683289 206.121546 67.1175141 205.653794 67.615892 205.186043 68.11427 204.93825 68.7476738 204.910407 69.5161224L209.880241 69.5161224zM214.424088 72.3226166C214.424088 72.7569571 214.582787 73.0994128 214.90019 73.3499939 215.217593 73.600575 215.593459 73.7258636 216.027799 73.7258636 216.556804 73.7258636 217.069095 73.6033592 217.564689 73.3583466 218.399959 72.9518484 218.817588 72.2864263 218.817588 71.3620605L218.817588 70.1509247C218.633829 70.2678625 218.397172 70.3653093 218.107612 70.4432678 217.818052 70.5212264 217.534064 70.5769102 217.255641 70.610321L216.345201 70.7272583C215.799491 70.7996484 215.390214 70.9138003 215.117359 71.0697174 214.655176 71.3314354 214.424088 71.7490643 214.424088 72.3226166zM218.065849 69.2822479C218.411094 69.2377002 218.642182 69.0929222 218.75912 68.8479095 218.825941 68.7142663 218.859352 68.522157 218.859352 68.2715759 218.859352 67.7592768 218.676987 67.3875871 218.312252 67.1564957 217.947518 66.9254042 217.425481 66.8098602 216.746128 66.8098602 215.960974 66.8098602 215.404136 67.0214589 215.075596 67.4446625 214.891837 67.6785382 214.772116 68.0265622 214.716432 68.4887451L213.313185 68.4887451C213.341027 67.3861883 213.698796 66.6191433 214.386501 66.187587 215.074207 65.7560307 215.871879 65.5402557 216.779539 65.5402557 217.831979 65.5402557 218.686727 65.7407176 219.343806 66.1416473 219.995317 66.5425771 220.321067 67.1662362 220.321067 68.0126434L220.321067 73.1662354C220.321067 73.3221525 220.353085 73.4474411 220.417123 73.5421051 220.48116 73.6367691 220.616194 73.6841003 220.822227 73.6841003 220.889048 73.6841003 220.964222 73.6799241 221.047749 73.6715714 221.131276 73.6632186 221.22037 73.6506898 221.315034 73.6339844L221.315034 74.7448883C221.081158 74.8117099 220.90297 74.8534728 220.780464 74.8701782 220.657957 74.8868836 220.490906 74.8952362 220.279304 74.8952362 219.761436 74.8952362 219.38557 74.7114795 219.151695 74.3439606 219.029188 74.1490642 218.942878 73.8734291 218.892762 73.5170471 218.586496 73.9179769 218.146594 74.2660009 217.573042 74.5611298 216.999489 74.8562586 216.367478 75.0038208 215.676988 75.0038208 214.847286 75.0038208 214.169335 74.7518514 213.643115 74.247905 213.116894 73.7439586 212.853788 73.113339 212.853788 72.3560272 212.853788 71.5263254 213.112718 70.8831769 213.630586 70.4265625 214.148453 69.9699481 214.827796 69.6887446 215.668635 69.5829437L218.065849 69.2822479zM223.085798 63.2599792L224.605982 63.2599792 224.605982 65.7574249 226.034287 65.7574249 226.034287 66.9852661 224.605982 66.9852661 224.605982 72.8237762C224.605982 73.1356105 224.711782 73.3444249 224.923383 73.4502258 225.040321 73.511479 225.235215 73.5421051 225.50807 73.5421051 225.58046 73.5421051 225.658417 73.540713 225.741944 73.5379288 225.825471 73.5351445 225.922918 73.5281841 226.034287 73.5170471L226.034287 74.703125C225.861665 74.7532412 225.682084 74.7894357 225.495541 74.8117096 225.308997 74.8339835 225.107143 74.8451202 224.889973 74.8451202 224.188346 74.8451202 223.712249 74.6655398 223.461668 74.3063736 223.211087 73.9472074 223.085798 73.4808551 223.085798 72.9073029L223.085798 66.9852661 221.874662 66.9852661 221.874662 65.7574249 223.085798 65.7574249 223.085798 63.2599792zM227.537766 65.7991882L229.066303 65.7991882 229.066303 74.703125 227.537766 74.703125 227.537766 65.7991882zM227.537766 62.4330658L229.066303 62.4330658 229.066303 64.1370087 227.537766 64.1370087 227.537766 62.4330658zM234.888108 73.7342163C235.884864 73.7342163 236.568383 73.3569582 236.938687 72.6024307 237.30899 71.8479032 237.494138 71.0084692 237.494138 70.0841034 237.494138 69.2488331 237.360497 68.5694901 237.093211 68.0460541 236.670007 67.2219207 235.940549 66.8098602 234.904814 66.8098602 233.986016 66.8098602 233.31781 67.1606685 232.900175 67.8622955 232.48254 68.5639226 232.273725 69.4103171 232.273725 70.4015045 232.273725 71.3537126 232.48254 72.1472075 232.900175 72.7820129 233.31781 73.4168184 233.980448 73.7342163 234.888108 73.7342163zM234.946577 65.4984924C236.09925 65.4984924 237.073717 65.882711 237.870008 66.6511597 238.666299 67.4196083 239.064439 68.5499905 239.064439 70.0423401 239.064439 71.4845735 238.713631 72.6762079 238.012003 73.6172791 237.310376 74.5583502 236.221757 75.0288788 234.746113 75.0288788 233.515481 75.0288788 232.53823 74.612642 231.814329 73.7801559 231.090428 72.9476699 230.728483 71.8298166 230.728483 70.4265625 230.728483 68.923076 231.109917 67.7258732 231.872798 66.8349182 232.635678 65.9439632 233.660261 65.4984924 234.946577 65.4984924zM240.851908 65.7574249L242.280213 65.7574249 242.280213 67.0270294C242.703417 66.5035934 243.151672 66.1277274 243.624992 65.8994202 244.098312 65.671113 244.624524 65.5569611 245.203645 65.5569611 246.473256 65.5569611 247.330787 65.9996477 247.776264 66.8850342 248.021277 67.3694909 248.143781 68.0627549 248.143781 68.9648468L248.143781 74.703125 246.615244 74.703125 246.615244 69.0650787C246.615244 68.5193688 246.534503 68.0794664 246.373017 67.7453583 246.105731 67.1885114 245.621281 66.9100922 244.919654 66.9100922 244.563272 66.9100922 244.270932 66.9462867 244.042625 67.0186768 243.630558 67.1411831 243.268613 67.386192 242.956779 67.7537109 242.706198 68.0488398 242.543323 68.3537089 242.468148 68.6683273 242.392974 68.9829458 242.355387 69.4325929 242.355387 70.0172821L242.355387 74.703125 240.851908 74.703125 240.851908 65.7574249zM388.917362 229.824839C389.479778 229.824839 389.941954 229.766371 390.303904 229.649433 390.949847 229.432263 391.478843 229.014634 391.89091 228.396534 392.219449 227.900941 392.456106 227.266145 392.600886 226.492127 392.684413 226.029945 392.726176 225.601179 392.726176 225.205818 392.726176 223.685626 392.424091 222.505128 391.819912 221.664289 391.215733 220.823451 390.242658 220.403038 388.900657 220.403038L385.952168 220.403038 385.952168 229.824839 388.917362 229.824839zM384.281635 218.974732L389.251469 218.974732C390.938715 218.974732 392.247285 219.573334 393.17722 220.770555 394.006921 221.850838 394.421766 223.234581 394.421766 224.921827 394.421766 226.224849 394.176757 227.402562 393.686732 228.455003 392.823619 230.314871 391.339645 231.244792 389.234764 231.244792L384.281635 231.244792 384.281635 218.974732zM400.08487 222.098628C400.719676 222.098628 401.334982 222.247582 401.930808 222.545495 402.526635 222.843408 402.980458 223.229019 403.292292 223.702339 403.59299 224.153385 403.793451 224.679597 403.893684 225.280992 403.982779 225.693058 404.027326 226.350128 404.027326 227.25222L397.470487 227.25222C397.49833 228.15988 397.712713 228.887946 398.113642 229.436441 398.514572 229.984935 399.135447 230.259178 399.976286 230.259178 400.76144 230.259178 401.387883 230.000248 401.855635 229.48238 402.122921 229.181683 402.312246 228.833659 402.423615 228.438298L403.902036 228.438298C403.863057 228.766837 403.733592 229.132958 403.513638 229.536672 403.293683 229.940386 403.047282 230.270313 402.774427 230.526463 402.317813 230.97194 401.752622 231.272633 401.078837 231.42855 400.716887 231.517646 400.30761 231.562193 399.850996 231.562193 398.737302 231.562193 397.793461 231.157093 397.019444 230.346881 396.245427 229.536668 395.858424 228.40211 395.858424 226.943171 395.858424 225.506506 396.248211 224.33993 397.027796 223.443406 397.807382 222.546883 398.826396 222.098628 400.08487 222.098628zM402.482084 226.057789C402.420831 225.406278 402.278837 224.885634 402.056098 224.495841 401.644032 223.771941 400.956336 223.409996 399.992991 223.409996 399.302501 223.409996 398.723389 223.659181 398.255638 224.157559 397.787886 224.655937 397.540093 225.28934 397.512251 226.057789L402.482084 226.057789zM406.766999 228.438298C406.811547 228.93946 406.936836 229.323678 407.142869 229.590965 407.521525 230.075422 408.178594 230.317646 409.114097 230.317646 409.670944 230.317646 410.160962 230.196534 410.584165 229.954306 411.007369 229.712077 411.218968 229.337603 411.218968 228.830873 411.218968 228.446648 411.049132 228.154308 410.709455 227.953843 410.492285 227.831337 410.063519 227.689343 409.423145 227.527857L408.228715 227.227162C407.465835 227.037834 406.903428 226.826235 406.541477 226.592359 405.895535 226.185861 405.572569 225.623454 405.572569 224.905122 405.572569 224.058715 405.877438 223.373803 406.487185 222.850367 407.096932 222.326931 407.916877 222.065217 408.947044 222.065217 410.294613 222.065217 411.266296 222.460572 411.862123 223.251295 412.23521 223.752457 412.416182 224.29259 412.405046 224.871711L410.985093 224.871711C410.957251 224.532035 410.837531 224.222989 410.625929 223.944566 410.280684 223.549205 409.682082 223.351527 408.830107 223.351527 408.262123 223.351527 407.831965 223.46011 407.53962 223.677281 407.247276 223.894451 407.101106 224.181223 407.101106 224.537605 407.101106 224.927398 407.293215 225.239227 407.677439 225.473103 407.900178 225.612315 408.228713 225.734819 408.663053 225.84062L409.65702 226.082847C410.737303 226.344565 411.461193 226.597927 411.828712 226.842939 412.413401 227.227164 412.705741 227.831333 412.705741 228.655467 412.705741 229.451758 412.403656 230.139453 411.799478 230.718574 411.195299 231.297695 410.275123 231.587251 409.038923 231.587251 407.708059 231.587251 406.76561 231.285166 406.211547 230.680987 405.657485 230.076808 405.360968 229.329253 405.321989 228.438298L406.766999 228.438298zM414.42639 222.340855L415.954927 222.340855 415.954927 231.244792 414.42639 231.244792 414.42639 222.340855zM414.42639 218.974732L415.954927 218.974732 415.954927 220.678675 414.42639 220.678675 414.42639 218.974732zM421.384156 222.140391C422.085783 222.140391 422.698306 222.313011 423.221742 222.658256 423.505734 222.853152 423.79529 223.13714 424.090418 223.510227L424.090418 222.382618 425.47696 222.382618 425.47696 230.51811C425.47696 231.654078 425.309909 232.550588 424.975801 233.207667 424.352132 234.421593 423.174419 235.028547 421.442625 235.028547 420.47928 235.028547 419.66908 234.812772 419.012 234.381216 418.354921 233.94966 417.987408 233.274493 417.909449 232.355696L419.437986 232.355696C419.510376 232.756625 419.655154 233.065671 419.872325 233.282841 420.212001 233.616949 420.746566 233.784001 421.476036 233.784001 422.628709 233.784001 423.383225 233.377509 423.739607 232.564512 423.951208 232.085624 424.048655 231.230877 424.03195 230.000245 423.731253 230.45686 423.369307 230.796531 422.946104 231.01927 422.5229 231.242009 421.963278 231.353376 421.267219 231.353376 420.298305 231.353376 419.450519 231.009528 418.723834 230.321823 417.997149 229.634117 417.633811 228.496774 417.633811 226.909761 417.633811 225.411842 417.999933 224.242482 418.732186 223.401643 419.46444 222.560804 420.348421 222.140391 421.384156 222.140391zM424.090418 226.734355C424.090418 225.626229 423.862115 224.804893 423.4055 224.27032 422.948886 223.735747 422.36699 223.468464 421.659794 223.468464 420.601785 223.468464 419.877895 223.96405 419.488102 224.955238 419.282069 225.484242 419.179054 226.177506 419.179054 227.03505 419.179054 228.042943 419.383692 228.809988 419.792974 229.336209 420.202257 229.862429 420.752135 230.125535 421.442625 230.125535 422.522908 230.125535 423.282992 229.638301 423.722901 228.663819 423.967914 228.112541 424.090418 227.469393 424.090418 226.734355zM427.740531 222.299092L429.168836 222.299092 429.168836 223.568696C429.59204 223.04526 430.040295 222.669394 430.513615 222.441087 430.986935 222.21278 431.513147 222.098628 432.092268 222.098628 433.361879 222.098628 434.21941 222.541314 434.664887 223.426701 434.9099 223.911158 435.032405 224.604422 435.032405 225.506513L435.032405 231.244792 433.503868 231.244792 433.503868 225.606745C433.503868 225.061035 433.423126 224.621133 433.26164 224.287025 432.994354 223.730178 432.509904 223.451759 431.808277 223.451759 431.451895 223.451759 431.159555 223.487953 430.931248 223.560343 430.519181 223.68285 430.157236 223.927859 429.845402 224.295378 429.594821 224.590506 429.431946 224.895376 429.356771 225.209994 429.281597 225.524612 429.24401 225.97426 429.24401 226.558949L429.24401 231.244792 427.740531 231.244792 427.740531 222.299092zM.581250197 218.974732L9.09261189 218.974732 9.09261189 220.478211 2.24342976 220.478211 2.24342976 224.203498 8.26569844 224.203498 8.26569844 225.665214 2.24342976 225.665214 2.24342976 231.244792.581250197 231.244792.581250197 218.974732zM14.3965517 222.098628C15.0313571 222.098628 15.6466637 222.247582 16.2424898 222.545495 16.838316 222.843408 17.2921393 223.229019 17.6039736 223.702339 17.9046709 224.153385 18.1051328 224.679597 18.2053652 225.280992 18.2944607 225.693058 18.3390078 226.350128 18.3390078 227.25222L11.7821688 227.25222C11.8100111 228.15988 12.0243939 228.887946 12.4253237 229.436441 12.8262534 229.984935 13.4471284 230.259178 14.2879671 230.259178 15.0731212 230.259178 15.6995645 230.000248 16.1673159 229.48238 16.4346024 229.181683 16.6239275 228.833659 16.7352968 228.438298L18.2137178 228.438298C18.1747386 228.766837 18.0452736 229.132958 17.8253191 229.536672 17.6053646 229.940386 17.3589636 230.270313 17.0861086 230.526463 16.6294942 230.97194 16.0643031 231.272633 15.3905184 231.42855 15.0285679 231.517646 14.6192916 231.562193 14.1626772 231.562193 13.0489835 231.562193 12.1051422 231.157093 11.3311251 230.346881 10.5571079 229.536668 10.1701052 228.40211 10.1701052 226.943171 10.1701052 225.506506 10.5598921 224.33993 11.3394777 223.443406 12.1190633 222.546883 13.1380778 222.098628 14.3965517 222.098628zM16.7937655 226.057789C16.7325123 225.406278 16.5905185 224.885634 16.3677797 224.495841 15.9557131 223.771941 15.2680175 223.409996 14.3046724 223.409996 13.6141823 223.409996 13.0350703 223.659181 12.5673189 224.157559 12.0995676 224.655937 11.8517744 225.28934 11.8239321 226.057789L16.7937655 226.057789zM23.9102327 222.098628C24.5450382 222.098628 25.1603447 222.247582 25.7561709 222.545495 26.351997 222.843408 26.8058204 223.229019 27.1176546 223.702339 27.4183519 224.153385 27.6188138 224.679597 27.7190462 225.280992 27.8081417 225.693058 27.8526888 226.350128 27.8526888 227.25222L21.2958498 227.25222C21.3236921 228.15988 21.538075 228.887946 21.9390047 229.436441 22.3399345 229.984935 22.9608094 230.259178 23.8016481 230.259178 24.5868022 230.259178 25.2132455 230.000248 25.6809969 229.48238 25.9482834 229.181683 26.1376085 228.833659 26.2489779 228.438298L27.7273989 228.438298C27.6884196 228.766837 27.5589546 229.132958 27.3390001 229.536672 27.1190456 229.940386 26.8726446 230.270313 26.5997896 230.526463 26.1431752 230.97194 25.5779841 231.272633 24.9041994 231.42855 24.542249 231.517646 24.1329727 231.562193 23.6763582 231.562193 22.5626645 231.562193 21.6188232 231.157093 20.8448061 230.346881 20.070789 229.536668 19.6837862 228.40211 19.6837862 226.943171 19.6837862 225.506506 20.0735732 224.33993 20.8531588 223.443406 21.6327444 222.546883 22.6517588 222.098628 23.9102327 222.098628zM26.3074465 226.057789C26.2461933 225.406278 26.1041995 224.885634 25.8814608 224.495841 25.4693941 223.771941 24.7816985 223.409996 23.8183535 223.409996 23.1278634 223.409996 22.5487513 223.659181 22.081 224.157559 21.6132486 224.655937 21.3654555 225.28934 21.3376131 226.057789L26.3074465 226.057789zM30.6508303 226.87635C30.6508303 227.834126 30.8540763 228.635974 31.2605745 229.281916 31.6670727 229.927859 32.3185738 230.250825 33.2150972 230.250825 33.9111558 230.250825 34.4833074 229.951524 34.9315691 229.352914 35.3798308 228.754304 35.6039583 227.89538 35.6039583 226.776118 35.6039583 225.645719 35.3728703 224.809069 34.9106875 224.266143 34.4485046 223.723218 33.8777451 223.451759 33.1983919 223.451759 32.4410802 223.451759 31.8271657 223.741315 31.3566301 224.320436 30.8860945 224.899556 30.6508303 225.751519 30.6508303 226.87635zM32.9144014 222.140391C33.5993231 222.140391 34.1728667 222.285169 34.6350496 222.574729 34.9023361 222.741783 35.2058131 223.034124 35.5454897 223.451759L35.5454897 218.932969 36.9905001 218.932969 36.9905001 231.244792 35.637369 231.244792 35.637369 230.000245C35.2865554 230.551524 34.8717108 230.949663 34.3928225 231.194676 33.9139342 231.439688 33.3654482 231.562193 32.7473482 231.562193 31.7505923 231.562193 30.8874927 231.143172 30.1580233 230.305117 29.4285539 229.467063 29.0638247 228.351994 29.0638247 226.959877 29.0638247 225.656855 29.3965357 224.527865 30.0619677 223.572872 30.7273997 222.61788 31.6782014 222.140391 32.9144014 222.140391zM39.0953707 218.932969L40.5570864 218.932969 40.5570864 223.384938C40.885626 222.956165 41.2781972 222.629023 41.7348116 222.4035 42.191426 222.177977 42.6870123 222.065217 43.2215853 222.065217 44.335279 222.065217 45.2387495 222.448044 45.9320238 223.213708 46.6252982 223.979372 46.9719301 225.108362 46.9719301 226.600712 46.9719301 228.015103 46.6294744 229.190032 45.9445528 230.125535 45.2596312 231.061038 44.3102215 231.528782 43.0962954 231.528782 42.4169422 231.528782 41.8433985 231.364515 41.3756472 231.035975 41.0972237 230.841079 40.7993151 230.529249 40.4819124 230.100477L40.4819124 231.244792 39.0953707 231.244792 39.0953707 218.932969zM43.0044161 230.200709C43.8174125 230.200709 44.4257586 229.877743 44.8294725 229.2318 45.2331865 228.585858 45.4350405 227.733895 45.4350405 226.675886 45.4350405 225.734815 45.2331865 224.955241 44.8294725 224.337141 44.4257586 223.719041 43.8313335 223.409996 43.0461794 223.409996 42.3612578 223.409996 41.7612643 223.663357 41.2461809 224.170088 40.7310976 224.676818 40.4735598 225.512076 40.4735598 226.675886 40.4735598 227.516725 40.5793591 228.198852 40.7909609 228.722288 41.1863222 229.707907 41.9241332 230.200709 43.0044161 230.200709zM49.8786562 228.864283C49.8786562 229.298624 50.0373552 229.641079 50.3547579 229.891661 50.6721606 230.142242 51.0480266 230.26753 51.4823671 230.26753 52.0113717 230.26753 52.5236631 230.145026 53.0192568 229.900013 53.8545271 229.493515 54.272156 228.828093 54.272156 227.903727L54.272156 226.692591C54.0883965 226.809529 53.8517401 226.906976 53.5621798 226.984934 53.2726194 227.062893 52.9886318 227.118577 52.7102083 227.151988L51.7997683 227.268925C51.2540583 227.341315 50.844782 227.455467 50.5719271 227.611384 50.1097442 227.873102 49.8786562 228.290731 49.8786562 228.864283zM53.5204165 225.823915C53.8656615 225.779367 54.0967495 225.634589 54.2136873 225.389576 54.280509 225.255933 54.3139193 225.063824 54.3139193 224.813243 54.3139193 224.300943 54.1315547 223.929254 53.76682 223.698162 53.4020853 223.467071 52.8800492 223.351527 52.200696 223.351527 51.4155419 223.351527 50.8587034 223.563126 50.5301638 223.986329 50.3464043 224.220205 50.226684 224.568229 50.1709993 225.030412L48.7677523 225.030412C48.7955946 223.927855 49.1533634 223.16081 49.8410692 222.729254 50.5287751 222.297697 51.3264463 222.081922 52.2341066 222.081922 53.2865472 222.081922 54.1412943 222.282384 54.7983736 222.683314 55.4498844 223.084244 55.775635 223.707903 55.775635 224.55431L55.775635 229.707902C55.775635 229.863819 55.8076532 229.989108 55.8716906 230.083772 55.935728 230.178436 56.0707613 230.225767 56.2767946 230.225767 56.3436163 230.225767 56.4187895 230.221591 56.5023165 230.213238 56.5858435 230.204885 56.6749377 230.192356 56.7696016 230.175651L56.7696016 231.286555C56.535726 231.353377 56.3575376 231.395139 56.2350313 231.411845 56.112525 231.42855 55.9454735 231.436903 55.7338717 231.436903 55.2160041 231.436903 54.8401381 231.253146 54.6062624 230.885627 54.4837561 230.690731 54.3974461 230.415096 54.3473299 230.058714 54.0410641 230.459644 53.6011617 230.807668 53.0276094 231.102796 52.4540572 231.397925 51.8220455 231.545487 51.1315554 231.545487 50.3018536 231.545487 49.6239027 231.293518 49.0976824 230.789572 48.5714621 230.285625 48.3083559 229.655006 48.3083559 228.897694 48.3083559 228.067992 48.5672858 227.424844 49.0851534 226.968229 49.603021 226.511615 50.282364 226.230411 51.1232027 226.12461L53.5204165 225.823915zM61.689319 222.040159C62.6972119 222.040159 63.5171566 222.285168 64.1491777 222.775193 64.7811989 223.265219 65.1612412 224.108829 65.289316 225.30605L63.8276003 225.30605C63.7385048 224.754771 63.5352587 224.296772 63.217856 223.932037 62.9004533 223.567302 62.3909461 223.384938 61.689319 223.384938 60.7315424 223.384938 60.0466311 223.852682 59.6345644 224.788185 59.3672779 225.395148 59.2336367 226.144095 59.2336367 227.03505 59.2336367 227.931574 59.4229618 228.68609 59.8016176 229.298622 60.1802735 229.911153 60.7760907 230.217414 61.5890871 230.217414 62.2127556 230.217414 62.7069498 230.026697 63.0716845 229.645257 63.4364192 229.263817 63.6883886 228.741781 63.8276003 228.079133L65.289316 228.079133C65.1222619 229.265217 64.7046331 230.132493 64.0364168 230.680987 63.3682006 231.229481 62.5134535 231.503724 61.4721499 231.503724 60.3027714 231.503724 59.370067 231.076351 58.6740084 230.221591 57.9779498 229.366831 57.6299257 228.299093 57.6299257 227.018345 57.6299257 225.448037 58.0113601 224.225776 58.7742403 223.351527 59.5371205 222.477277 60.5088037 222.040159 61.689319 222.040159zM66.7593844 218.974732L68.2043947 218.974732 68.2043947 226.099552 72.0633242 222.299092 73.9844362 222.299092 70.5598452 225.648509 74.1765474 231.244792 72.2554354 231.244792 69.4656466 226.734355 68.2043947 227.887022 68.2043947 231.244792 66.7593844 231.244792 66.7593844 218.974732zM174.610751 423.926277L173.107272 423.926277 173.107272 431.836247C173.107272 433.122563 173.531861 434.181948 174.381052 435.014434 175.230244 435.84692 176.400997 436.263157 177.893346 436.263157 179.391264 436.263157 180.56341 435.84692 181.409817 435.014434 182.256224 434.181948 182.679421 433.122563 182.679421 431.836247L182.679421 423.926277 181.175942 423.926277 181.175942 431.736015C181.175942 432.643675 180.890562 433.394015 180.319794 433.987057 179.749026 434.580099 178.940218 434.876615 177.893346 434.876615 176.852043 434.876615 176.044627 434.580099 175.471075 433.987057 174.897522 433.394015 174.610751 432.643675 174.610751 431.736015L174.610751 423.926277zM185.009814 429.439033C185.009814 430.090544 185.208883 430.608404 185.607029 430.992628 186.005174 431.376852 186.624657 431.671977 187.465496 431.87801L189.010738 432.25388C189.489627 432.370818 189.847395 432.533693 190.084055 432.74251 190.320715 432.951328 190.439043 433.21165 190.439043 433.523484 190.439043 433.935551 190.24415 434.272438 189.854357 434.534156 189.464564 434.795874 188.966194 434.926731 188.359231 434.926731 187.785679 434.926731 187.320718 434.813972 186.964336 434.588449 186.607954 434.362926 186.368514 434.060841 186.246008 433.682185L184.767587 433.682185C184.845545 434.42836 185.204706 435.024177 185.84508 435.469654 186.485454 435.915132 187.30679 436.137867 188.309115 436.137867 189.333713 436.137867 190.191244 435.885898 190.881734 435.381951 191.572225 434.878005 191.917464 434.222328 191.917464 433.4149 191.917464 432.768957 191.710042 432.25249 191.295191 431.865481 190.88034 431.478472 190.249721 431.181956 189.403313 430.975923L188.016772 430.641816C187.487767 430.513741 187.095196 430.348082 186.839046 430.144833 186.582897 429.941584 186.454824 429.68683 186.454824 429.380564 186.454824 428.979635 186.638581 428.655276 187.0061 428.407479 187.373619 428.159682 187.824658 428.035786 188.359231 428.035786 188.904941 428.035786 189.347627 428.144369 189.687304 428.36154 190.026981 428.57871 190.244148 428.868266 190.338811 429.230216L191.758764 429.230216C191.6641 428.48961 191.3119 427.902146 190.702152 427.467805 190.092405 427.033464 189.314223 426.816297 188.367583 426.816297 187.409807 426.816297 186.610744 427.066875 185.97037 427.568037 185.329996 428.069199 185.009814 428.692858 185.009814 429.439033zM197.371752 428.085902C196.65342 428.085902 196.063171 428.328127 195.600988 428.812583 195.138805 429.29704 194.879875 429.937404 194.824191 430.733695L199.785671 430.733695C199.768966 429.937404 199.540662 429.29704 199.100753 428.812583 198.660844 428.328127 198.084516 428.085902 197.371752 428.085902zM199.743908 433.648774L201.180566 433.648774C200.963395 434.422791 200.523493 435.031137 199.860845 435.473831 199.198197 435.916524 198.374076 436.137867 197.388457 436.137867 196.141121 436.137867 195.152732 435.718846 194.423263 434.880792 193.693793 434.042737 193.329064 432.910963 193.329064 431.485435 193.329064 430.071044 193.696578 428.93927 194.431615 428.090078 195.166653 427.240887 196.152257 426.816297 197.388457 426.816297 198.602384 426.816297 199.557362 427.221397 200.25342 428.03161 200.949479 428.841822 201.297503 429.945754 201.297503 431.34344L201.297503 431.894715 194.824191 431.894715 194.824191 431.961537C194.86317 432.852492 195.115139 433.559677 195.580106 434.083113 196.045073 434.606549 196.658988 434.868263 197.421868 434.868263 198.000989 434.868263 198.485438 434.763856 198.875231 434.555038 199.265024 434.34622 199.55458 434.044135 199.743908 433.648774zM203.160146 435.979167L204.596804 435.979167 204.596804 430.399589C204.596804 429.764784 204.819539 429.241355 205.265017 428.829289 205.710494 428.417222 206.275686 428.211192 206.960607 428.211192 207.105387 428.211192 207.280791 428.220936 207.486825 428.240426 207.692858 428.259916 207.823715 428.278013 207.8794 428.294718L207.8794 426.858061C207.790304 426.846924 207.677545 426.837179 207.541117 426.828826 207.40469 426.820474 207.278009 426.816297 207.161071 426.816297 206.565245 426.816297 206.033464 426.955507 205.565713 427.23393 205.097961 427.512354 204.797269 427.871515 204.663625 428.311424L204.529983 428.311424 204.529983 426.974998 203.160146 426.974998 203.160146 435.979167zM214.319302 424.644606L214.319302 426.974998 212.865939 426.974998 212.865939 428.177781 214.319302 428.177781 214.319302 433.640422C214.319302 434.497966 214.521156 435.113272 214.92487 435.48636 215.328584 435.859447 215.992613 436.045988 216.916979 436.045988 217.061759 436.045988 217.203753 436.039027 217.342965 436.025106 217.482177 436.011185 217.621386 435.990304 217.760598 435.962461L217.760598 434.751325C217.626955 434.762462 217.514195 434.770815 217.422315 434.776383 217.330435 434.781952 217.22046 434.784736 217.092385 434.784736 216.624634 434.784736 216.284962 434.665016 216.07336 434.425572 215.861759 434.186128 215.755959 433.801909 215.755959 433.272904L215.755959 428.177781 217.760598 428.177781 217.760598 426.974998 215.755959 426.974998 215.755959 424.644606 214.319302 424.644606zM223.131359 428.085902C222.413027 428.085902 221.822778 428.328127 221.360595 428.812583 220.898412 429.29704 220.639482 429.937404 220.583797 430.733695L225.545278 430.733695C225.528573 429.937404 225.300269 429.29704 224.86036 428.812583 224.420451 428.328127 223.844123 428.085902 223.131359 428.085902zM225.503515 433.648774L226.940173 433.648774C226.723002 434.422791 226.2831 435.031137 225.620452 435.473831 224.957804 435.916524 224.133683 436.137867 223.148064 436.137867 221.900727 436.137867 220.912339 435.718846 220.18287 434.880792 219.4534 434.042737 219.088671 432.910963 219.088671 431.485435 219.088671 430.071044 219.456185 428.93927 220.191222 428.090078 220.92626 427.240887 221.911864 426.816297 223.148064 426.816297 224.361991 426.816297 225.316969 427.221397 226.013027 428.03161 226.709086 428.841822 227.05711 429.945754 227.05711 431.34344L227.05711 431.894715 220.583797 431.894715 220.583797 431.961537C220.622777 432.852492 220.874746 433.559677 221.339713 434.083113 221.80468 434.606549 222.418595 434.868263 223.181475 434.868263 223.760596 434.868263 224.245045 434.763856 224.634838 434.555038 225.024631 434.34622 225.314187 434.044135 225.503515 433.648774zM228.710937 429.439033C228.710937 430.090544 228.910006 430.608404 229.308152 430.992628 229.706298 431.376852 230.32578 431.671977 231.166619 431.87801L232.711861 432.25388C233.19075 432.370818 233.548518 432.533693 233.785178 432.74251 234.021838 432.951328 234.140166 433.21165 234.140166 433.523484 234.140166 433.935551 233.945273 434.272438 233.55548 434.534156 233.165687 434.795874 232.667317 434.926731 232.060354 434.926731 231.486802 434.926731 231.021841 434.813972 230.665459 434.588449 230.309077 434.362926 230.069637 434.060841 229.947131 433.682185L228.46871 433.682185C228.546668 434.42836 228.905829 435.024177 229.546203 435.469654 230.186577 435.915132 231.007914 436.137867 232.010238 436.137867 233.034836 436.137867 233.892367 435.885898 234.582858 435.381951 235.273348 434.878005 235.618587 434.222328 235.618587 433.4149 235.618587 432.768957 235.411165 432.25249 234.996314 431.865481 234.581463 431.478472 233.950844 431.181956 233.104436 430.975923L231.717895 430.641816C231.18889 430.513741 230.796319 430.348082 230.54017 430.144833 230.28402 429.941584 230.155947 429.68683 230.155947 429.380564 230.155947 428.979635 230.339704 428.655276 230.707223 428.407479 231.074742 428.159682 231.525781 428.035786 232.060354 428.035786 232.606064 428.035786 233.04875 428.144369 233.388427 428.36154 233.728104 428.57871 233.945271 428.868266 234.039935 429.230216L235.459887 429.230216C235.365223 428.48961 235.013023 427.902146 234.403275 427.467805 233.793528 427.033464 233.015346 426.816297 232.068707 426.816297 231.11093 426.816297 230.311867 427.066875 229.671493 427.568037 229.031119 428.069199 228.710937 428.692858 228.710937 429.439033zM238.082623 424.644606L238.082623 426.974998 236.629259 426.974998 236.629259 428.177781 238.082623 428.177781 238.082623 433.640422C238.082623 434.497966 238.284476 435.113272 238.68819 435.48636 239.091904 435.859447 239.755934 436.045988 240.6803 436.045988 240.82508 436.045988 240.967074 436.039027 241.106286 436.025106 241.245498 436.011185 241.384707 435.990304 241.523919 435.962461L241.523919 434.751325C241.390276 434.762462 241.277516 434.770815 241.185636 434.776383 241.093756 434.781952 240.983781 434.784736 240.855706 434.784736 240.387955 434.784736 240.048283 434.665016 239.836681 434.425572 239.62508 434.186128 239.51928 433.801909 239.51928 433.272904L239.51928 428.177781 241.523919 428.177781 241.523919 426.974998 239.51928 426.974998 239.51928 424.644606 238.082623 424.644606zM243.336446 435.979167L244.773104 435.979167 244.773104 426.974998 243.336446 426.974998 243.336446 435.979167zM244.054775 425.145765C244.333199 425.145765 244.569855 425.046926 244.764751 424.849246 244.959648 424.651565 245.057095 424.416301 245.057095 424.143446 245.057095 423.865022 244.959648 423.628366 244.764751 423.43347 244.569855 423.238573 244.333199 423.141127 244.054775 423.141127 243.78192 423.141127 243.546656 423.238573 243.348975 423.43347 243.151295 423.628366 243.052456 423.865022 243.052456 424.143446 243.052456 424.416301 243.151295 424.651565 243.348975 424.849246 243.546656 425.046926 243.78192 425.145765 244.054775 425.145765zM247.120202 435.979167L248.55686 435.979167 248.55686 430.650169C248.55686 429.859446 248.771242 429.238571 249.200014 428.787525 249.628787 428.336479 250.20233 428.11096 250.920663 428.11096 251.638995 428.11096 252.172168 428.305853 252.520197 428.695646 252.868227 429.085439 253.042239 429.686825 253.042239 430.499821L253.042239 435.979167 254.478896 435.979167 254.478896 430.149009C254.478896 429.079863 254.207438 428.257134 253.664512 427.680798 253.121586 427.104461 252.343404 426.816297 251.329943 426.816297 250.639453 426.816297 250.07287 426.955507 249.630177 427.23393 249.187483 427.512354 248.851988 427.899357 248.623681 428.39495L248.490038 428.39495 248.490038 426.974998 247.120202 426.974998 247.120202 435.979167zM260.350817 434.57592C261.186087 434.57592 261.840373 434.282187 262.313692 433.694714 262.787012 433.10724 263.023669 432.32349 263.023669 431.34344 263.023669 430.363389 262.78562 429.579639 262.309516 428.992166 261.833412 428.404692 261.180519 428.11096 260.350817 428.11096 259.515547 428.11096 258.872398 428.404692 258.421352 428.992166 257.970306 429.579639 257.744787 430.363389 257.744787 431.34344 257.744787 432.32349 257.970306 433.10724 258.421352 433.694714 258.872398 434.282187 259.515547 434.57592 260.350817 434.57592zM260.417638 439.437168C259.331787 439.437168 258.458943 439.213041 257.799079 438.764779 257.139216 438.316517 256.753605 437.719308 256.642236 436.973133L258.16242 436.973133C258.240378 437.340652 258.474251 437.634385 258.864043 437.854339 259.253836 438.074294 259.771696 438.184269 260.417638 438.184269 261.225066 438.184269 261.855686 437.996336 262.309516 437.620465 262.763346 437.244593 262.990258 436.725341 262.990258 436.062693L262.990258 434.291929 262.856615 434.291929C262.572624 434.787523 262.185621 435.170349 261.695596 435.44042 261.20557 435.710491 260.651516 435.845524 260.033416 435.845524 258.869606 435.845524 257.94943 435.432071 257.272861 434.605154 256.596293 433.778236 256.258013 432.691009 256.258013 431.34344 256.258013 429.99587 256.597685 428.904467 257.277038 428.069197 257.956391 427.233926 258.875175 426.816297 260.033416 426.816297 260.662653 426.816297 261.237589 426.959683 261.758241 427.246459 262.278892 427.533236 262.667287 427.918846 262.923437 428.403303L263.057079 428.403303 263.057079 426.974998 264.426916 426.974998 264.426916 436.137867C264.426916 437.14576 264.066363 437.947607 263.345246 438.543434 262.624129 439.13926 261.64827 439.437168 260.417638 439.437168zM177.834878 259.261191L177.834878 266.845407C177.834878 267.736362 178.001929 268.476957 178.336037 269.067215 178.831631 269.95817 179.666889 270.403641 180.841836 270.403641 182.250658 270.403641 183.208421 269.921975 183.715151 268.95863 183.988006 268.435194 184.124432 267.730794 184.124432 266.845407L184.124432 259.261191 185.811669 259.261191 185.811669 266.152136C185.811669 267.661191 185.608423 268.8222 185.201925 269.635196 184.45575 271.116409 183.046949 271.857004 180.975478 271.857004 178.904008 271.857004 177.497991 271.116409 176.757384 269.635196 176.350886 268.8222 176.14764 267.661191 176.14764 266.152136L176.14764 259.261191 177.834878 259.261191zM189.07756 268.724756C189.122107 269.225918 189.247396 269.610137 189.453429 269.877423 189.832085 270.36188 190.489155 270.604105 191.424657 270.604105 191.981504 270.604105 192.471522 270.482992 192.894726 270.240764 193.317929 269.998535 193.529528 269.624062 193.529528 269.117331 193.529528 268.733107 193.359692 268.440766 193.020016 268.240302 192.802845 268.117795 192.37408 267.975801 191.733706 267.814316L190.539275 267.51362C189.776395 267.324292 189.213988 267.112693 188.852038 266.878818 188.206095 266.47232 187.883129 265.909913 187.883129 265.19158 187.883129 264.345173 188.187998 263.660262 188.797746 263.136826 189.407493 262.61339 190.227438 262.351675 191.257604 262.351675 192.605174 262.351675 193.576857 262.747031 194.172683 263.537753 194.54577 264.038915 194.726743 264.579049 194.715606 265.15817L193.295654 265.15817C193.267811 264.818493 193.148091 264.509448 192.936489 264.231024 192.591244 263.835663 191.992643 263.637985 191.140667 263.637985 190.572683 263.637985 190.142525 263.746569 189.850181 263.963739 189.557836 264.180909 189.411666 264.467681 189.411666 264.824063 189.411666 265.213856 189.603775 265.525685 189.988 265.759561 190.210738 265.898773 190.539273 266.021277 190.973614 266.127078L191.96758 266.369305C193.047863 266.631023 193.771753 266.884385 194.139272 267.129398 194.723962 267.513622 195.016302 268.117792 195.016302 268.941925 195.016302 269.738216 194.714217 270.425912 194.110038 271.005032 193.505859 271.584153 192.585684 271.873709 191.349483 271.873709 190.018619 271.873709 189.07617 271.571624 188.522108 270.967445 187.968045 270.363267 187.671529 269.615711 187.632549 268.724756L189.07756 268.724756zM200.462237 262.385086C201.097042 262.385086 201.712349 262.53404 202.308175 262.831953 202.904001 263.129867 203.357824 263.515477 203.669659 263.988797 203.970356 264.439843 204.170818 264.966055 204.27105 265.56745 204.360146 265.979517 204.404693 266.636586 204.404693 267.538678L197.847854 267.538678C197.875696 268.446338 198.090079 269.174405 198.491009 269.722899 198.891938 270.271393 199.512813 270.545636 200.353652 270.545636 201.138806 270.545636 201.76525 270.286706 202.233001 269.768839 202.500287 269.468141 202.689613 269.120117 202.800982 268.724756L204.279403 268.724756C204.240424 269.053296 204.110959 269.419417 203.891004 269.823131 203.67105 270.226845 203.424649 270.556772 203.151794 270.812921 202.695179 271.258399 202.129988 271.559091 201.456203 271.715009 201.094253 271.804104 200.684977 271.848651 200.228362 271.848651 199.114669 271.848651 198.170827 271.443551 197.39681 270.633339 196.622793 269.823127 196.23579 268.688568 196.23579 267.22963 196.23579 265.792965 196.625577 264.626388 197.405163 263.729865 198.184748 262.833341 199.203763 262.385086 200.462237 262.385086zM202.859451 266.344247C202.798197 265.692737 202.656204 265.172093 202.433465 264.7823 202.021398 264.058399 201.333703 263.696454 200.370358 263.696454 199.679867 263.696454 199.100755 263.945639 198.633004 264.444017 198.165253 264.942395 197.917459 265.575799 197.889617 266.344247L202.859451 266.344247zM206.292394 262.58555L207.720699 262.58555 207.720699 264.130792C207.837637 263.830095 208.124409 263.463974 208.581023 263.032417 209.037638 262.600861 209.56385 262.385086 210.159676 262.385086 210.187519 262.385086 210.23485 262.38787 210.301672 262.393439 210.368493 262.399007 210.482645 262.410144 210.644131 262.426849L210.644131 264.013855C210.555035 263.99715 210.472902 263.986013 210.397727 263.980444 210.322553 263.974876 210.240419 263.972092 210.151324 263.972092 209.394012 263.972092 208.812116 264.215709 208.405618 264.70295 207.999119 265.190191 207.795873 265.751205 207.795873 266.386011L207.795873 271.53125 206.292394 271.53125 206.292394 262.58555zM216.69981 262.58555L218.128115 262.58555 218.128115 263.855154C218.551319 263.331718 218.999574 262.955852 219.472894 262.727545 219.946213 262.499238 220.472426 262.385086 221.051546 262.385086 222.321157 262.385086 223.178689 262.827773 223.624166 263.713159 223.869179 264.197616 223.991683 264.89088 223.991683 265.792972L223.991683 271.53125 222.463146 271.53125 222.463146 265.893204C222.463146 265.347494 222.382405 264.907591 222.220919 264.573483 221.953633 264.016636 221.469183 263.738217 220.767556 263.738217 220.411174 263.738217 220.118834 263.774412 219.890527 263.846802 219.47846 263.969308 219.116515 264.214317 218.804681 264.581836 218.5541 264.876965 218.391224 265.181834 218.31605 265.496452 218.240876 265.811071 218.203289 266.260718 218.203289 266.845407L218.203289 271.53125 216.69981 271.53125 216.69981 262.58555zM229.938778 262.385086C230.573583 262.385086 231.18889 262.53404 231.784716 262.831953 232.380542 263.129867 232.834366 263.515477 233.1462 263.988797 233.446897 264.439843 233.647359 264.966055 233.747591 265.56745 233.836687 265.979517 233.881234 266.636586 233.881234 267.538678L227.324395 267.538678C227.352237 268.446338 227.56662 269.174405 227.96755 269.722899 228.36848 270.271393 228.989355 270.545636 229.830193 270.545636 230.615347 270.545636 231.241791 270.286706 231.709542 269.768839 231.976829 269.468141 232.166154 269.120117 232.277523 268.724756L233.755944 268.724756C233.716965 269.053296 233.5875 269.419417 233.367545 269.823131 233.147591 270.226845 232.90119 270.556772 232.628335 270.812921 232.17172 271.258399 231.606529 271.559091 230.932745 271.715009 230.570794 271.804104 230.161518 271.848651 229.704903 271.848651 228.59121 271.848651 227.647368 271.443551 226.873351 270.633339 226.099334 269.823127 225.712331 268.688568 225.712331 267.22963 225.712331 265.792965 226.102118 264.626388 226.881704 263.729865 227.66129 262.833341 228.680304 262.385086 229.938778 262.385086zM232.335992 266.344247C232.274739 265.692737 232.132745 265.172093 231.910006 264.7823 231.497939 264.058399 230.810244 263.696454 229.846899 263.696454 229.156409 263.696454 228.577296 263.945639 228.109545 264.444017 227.641794 264.942395 227.394001 265.575799 227.366158 266.344247L232.335992 266.344247zM239.452459 262.385086C240.087264 262.385086 240.702571 262.53404 241.298397 262.831953 241.894223 263.129867 242.348047 263.515477 242.659881 263.988797 242.960578 264.439843 243.16104 264.966055 243.261272 265.56745 243.350368 265.979517 243.394915 266.636586 243.394915 267.538678L236.838076 267.538678C236.865918 268.446338 237.080301 269.174405 237.481231 269.722899 237.882161 270.271393 238.503036 270.545636 239.343874 270.545636 240.129028 270.545636 240.755472 270.286706 241.223223 269.768839 241.49051 269.468141 241.679835 269.120117 241.791204 268.724756L243.269625 268.724756C243.230646 269.053296 243.101181 269.419417 242.881226 269.823131 242.661272 270.226845 242.414871 270.556772 242.142016 270.812921 241.685401 271.258399 241.12021 271.559091 240.446426 271.715009 240.084475 271.804104 239.675199 271.848651 239.218584 271.848651 238.104891 271.848651 237.161049 271.443551 236.387032 270.633339 235.613015 269.823127 235.226012 268.688568 235.226012 267.22963 235.226012 265.792965 235.615799 264.626388 236.395385 263.729865 237.174971 262.833341 238.193985 262.385086 239.452459 262.385086zM241.849673 266.344247C241.78842 265.692737 241.646426 265.172093 241.423687 264.7823 241.01162 264.058399 240.323925 263.696454 239.36058 263.696454 238.67009 263.696454 238.090978 263.945639 237.623226 264.444017 237.155475 264.942395 236.907682 265.575799 236.879839 266.344247L241.849673 266.344247zM246.193056 267.162808C246.193056 268.120585 246.396303 268.922432 246.802801 269.568375 247.209299 270.214317 247.8608 270.537283 248.757323 270.537283 249.453382 270.537283 250.025534 270.237983 250.473795 269.639372 250.922057 269.040762 251.146185 268.181838 251.146185 267.062576 251.146185 265.932177 250.915097 265.095527 250.452914 264.552602 249.990731 264.009676 249.419971 263.738217 248.740618 263.738217 247.983306 263.738217 247.369392 264.027773 246.898856 264.606894 246.428321 265.186015 246.193056 266.037978 246.193056 267.162808zM248.456628 262.426849C249.141549 262.426849 249.715093 262.571627 250.177276 262.861188 250.444562 263.028242 250.748039 263.320582 251.087716 263.738217L251.087716 259.219427 252.532726 259.219427 252.532726 271.53125 251.179595 271.53125 251.179595 270.286703C250.828782 270.837982 250.413937 271.236121 249.935049 271.481134 249.45616 271.726147 248.907674 271.848651 248.289574 271.848651 247.292819 271.848651 246.429719 271.42963 245.700249 270.591576 244.97078 269.753521 244.606051 268.638452 244.606051 267.246335 244.606051 265.943313 244.938762 264.814323 245.604194 263.859331 246.269626 262.904338 247.220428 262.426849 248.456628 262.426849zM255.648269 268.724756C255.692817 269.225918 255.818105 269.610137 256.024139 269.877423 256.402794 270.36188 257.059864 270.604105 257.995367 270.604105 258.552214 270.604105 259.042231 270.482992 259.465435 270.240764 259.888639 269.998535 260.100237 269.624062 260.100237 269.117331 260.100237 268.733107 259.930402 268.440766 259.590725 268.240302 259.373555 268.117795 258.944789 267.975801 258.304415 267.814316L257.109985 267.51362C256.347104 267.324292 255.784697 267.112693 255.422747 266.878818 254.776805 266.47232 254.453838 265.909913 254.453838 265.19158 254.453838 264.345173 254.758707 263.660262 255.368455 263.136826 255.978202 262.61339 256.798147 262.351675 257.828313 262.351675 259.175883 262.351675 260.147566 262.747031 260.743392 263.537753 261.11648 264.038915 261.297452 264.579049 261.286315 265.15817L259.866363 265.15817C259.83852 264.818493 259.7188 264.509448 259.507198 264.231024 259.161953 263.835663 258.563352 263.637985 257.711376 263.637985 257.143392 263.637985 256.713235 263.746569 256.42089 263.963739 256.128545 264.180909 255.982375 264.467681 255.982375 264.824063 255.982375 265.213856 256.174485 265.525685 256.558709 265.759561 256.781448 265.898773 257.109982 266.021277 257.544323 266.127078L258.53829 266.369305C259.618573 266.631023 260.342463 266.884385 260.709982 267.129398 261.294671 267.513622 261.587011 268.117792 261.587011 268.941925 261.587011 269.738216 261.284926 270.425912 260.680747 271.005032 260.076568 271.584153 259.156393 271.873709 257.920193 271.873709 256.589329 271.873709 255.64688 271.571624 255.092817 270.967445 254.538754 270.363267 254.242238 269.615711 254.203259 268.724756L255.648269 268.724756z"/>
    <g stroke-width="1.833" transform="translate(195.6 365.672)">
      <path stroke="#0595DB" stroke-linejoin="round" d="M33.0060484,42.804362 L3.11168133,42.804362 C1.40233105,42.7982485 0,41.4166081 0,39.7374463 L0,3.05672664 C0,1.37552699 1.40233105,0 3.11168133,0 L30.0795862,0 C31.7910109,0 33.1912675,1.37552699 33.1912675,3.05672664 L33.0060484,30.5745443 L33.0060484,42.804362 Z"/>
      <polyline stroke="#0595DB" stroke-linecap="round" stroke-linejoin="round" points="30.561 35.466 3.667 35.466 3.667 3.669 29.616 3.669 29.616 27.913"/>
      <path stroke="#0595DB" stroke-linecap="round" stroke-linejoin="round" d="M46.452957,46.4733073 L40.6899962,38.138913 L40.6899962,28.6397871 C40.6899962,25.1101711 36.6924223,21.7555774 33.0060484,18.3447266"/>
      <path fill="#FFF" stroke="#0595DB" stroke-linecap="round" stroke-linejoin="round" d="M34.7185244,33.0416786 L30.3200834,28.7243694 C29.5107702,27.9299845 28.1971025,27.9299845 27.3877893,28.7243694 C26.5784762,29.5187543 26.8990736,31.1228745 27.3877893,31.6025755 L32.7636617,37.8386889 L32.7636617,39.757493 C32.7636617,41.6762971 36.6733871,46.4733073 36.6733871,46.4733073"/>
      <path stroke="#0595DB" stroke-linejoin="round" d="M13.4469086,39.1354167 L20.781586,39.1354167"/>
      <path stroke="#066796" stroke-linecap="square" d="M17.8692876 7.58968099L22.7590726 7.58968099M17.8692876 9.89176432L26.4264113 9.89176432M17.8692876 12.1938477L26.4264113 12.1938477"/>
      <rect width="5.07" height="5.073" x="8.035" y="7.823" stroke="#066796"/>
      <rect width="5.07" height="5.073" x="7.82" y="27.39" stroke="#066796"/>
      <rect width="5.07" height="5.073" x="18.174" y="27.39" stroke="#066796"/>
      <rect width="18.158" height="6.728" x="7.82" y="17.031" stroke="#066796"/>
    </g>
    <g stroke-linecap="round" stroke-linejoin="round" stroke-width="1.833" transform="translate(393.636 168.771)">
      <path stroke="#0595DB" d="M24.4489247,22.0136719 L26.2825941,22.0136719 C29.3209842,22.0136719 31.7836022,24.4773687 31.7836022,27.5170898 C31.7836022,30.556811 29.3209842,33.0205078 26.2825941,33.0205078 L24.4489247,33.0205078"/>
      <path stroke="#066796" d="M24.954941 1.22298177C26.7387188 3.98204672 24.095893 5.49479961 23.4805589 6.9760003 22.8289269 8.5430931 23.4632742 10.0470815 25.010252 10.7079249 30.0228057 12.8499689 31.5144726 2.83214418 24.954941 1.22298177L24.954941 1.22298177zM19.5591398 18.3447266L24.4489247 9.78385417M25.671371 11.0068359L23.2264785 18.3447266"/>
      <polygon stroke="#066796" points="8.557 18.345 3.423 18.345 .856 12.841 0 7.338 4.279 10.09"/>
      <path stroke="#066796" d="M1.22244624,12.2298177 L3.66733871,11.0068359"/>
      <polygon stroke="#066796" points="11.002 18.345 18.337 18.345 18.337 0 11.002 0"/>
      <path stroke="#066796" d="M18.3366935 3.66894531L14.6693548 3.66894531M17.1142473 7.33789063L15.8918011 7.33789063M18.3366935 9.78385417L14.6693548 9.78385417M17.1142473 13.4527995L15.8918011 13.4527995"/>
      <path stroke="#0595DB" d="M24.4489247,38.0065104 C24.4489247,39.9798385 22.849871,41.5813802 20.8756203,41.5813802 L4.79575062,41.5813802 C2.82149995,41.5813802 1.22244624,39.9798385 1.22244624,38.0065104 L1.22244624,18.3447266 L24.4489247,18.3447266 L24.4489247,38.0065104 L24.4489247,38.0065104 Z"/>
    </g>
    <g stroke-linecap="round" stroke-linejoin="round" stroke-width="1.833" transform="translate(190.71)">
      <path stroke="#0595DB" d="M55.8792241 7.05666597L10.4842352 7.05666597M10.4838645 29.2961614C10.4838645 31.9084505 12.6208189 34.0254319 15.2618942 34.0254319L51.1008238 34.0254319C53.7381924 34.0254319 55.8788535 31.9084505 55.8788535 29.2961614L55.8788535 5.64613994C55.8788535 3.03568535 53.7381924.916869434 51.1008238.916869434L15.2618942.916869434C12.6208189.916869434 10.4838645 3.03568535 10.4838645 5.64613994L10.4838645 29.2961614z"/>
      <path stroke="#0595DB" d="M10.4838645,5.64687373 C7.84278917,5.64687373 5.70583485,7.76385518 5.70583485,10.3761442 L5.70583485,34.0261657 C5.70583485,36.6384548 7.84278917,38.7554362 10.4838645,38.7554362 L46.3227941,38.7554362 C48.9601627,38.7554362 51.1008238,36.6384548 51.1008238,34.0261657"/>
      <path stroke="#0595DB" d="M5.70564951,10.3763277 C3.06272074,10.3763277 0.927619808,12.4933091 0.927619808,15.1055982 L0.927619808,38.7556197 C0.927619808,41.3679087 3.06272074,43.4848902 5.70564951,43.4848902 L41.544579,43.4848902 C44.1819476,43.4848902 46.3226087,41.3679087 46.3226087,38.7556197"/>
      <path stroke="#066796" d="M42.8076617,20.1058203 C42.8076617,20.1058203 38.4447906,25.5872246 33.0440231,25.6019004 C27.6432556,25.6165762 23.2507303,20.1571855 23.2507303,20.1571855 C23.2507303,20.1571855 27.6136014,14.6757813 33.0143689,14.6611055 C38.4151364,14.6464297 42.8076617,20.1058203 42.8076617,20.1058203 Z"/>
      <path stroke="#066796" d="M36.4312718,20.1219637 C36.4349785,21.9839534 34.9170552,23.4937244 33.039575,23.4973934 C31.1602413,23.5028968 29.6330511,22.0004637 29.6274909,20.1403084 C29.6237841,18.2801531 31.1417075,16.7703821 33.0191877,16.7648787 C34.8985213,16.7612098 36.4257116,18.2618084 36.4312718,20.1219637 Z"/>
    </g>
    <g transform="translate(179.708 156.542)">
      <path fill="#D9D9D9" d="M34.8397177,8.5608724 C15.1864496,8.5608724 0,23.9814495 0,43.6433275 C0,54.8079281 3.66733871,65.2864359 14.6693548,71.8134896 L14.6693548,92.9466146 L51.3427419,92.9466146 L51.3427419,80.1896917 C58.6774194,80.2300501 62.4107702,79.6980531 64.9815746,77.1224535 C68.2785121,73.8277406 67.963121,59.9261068 67.963121,59.9261068 C67.963121,59.9261068 71.0913609,60.043513 73.4567944,59.9481204 C74.2782782,59.911431 75.0960948,59.4968402 75.5655141,58.8217542 C76.0386008,58.1466683 75.8882399,57.3321624 75.9505847,56.5103187 C76.3723286,50.6179925 68.0804758,40.5063792 68.0804758,37.567554 C68.0804758,19.1090902 50.6569496,8.5608724 34.8397177,8.5608724 Z"/>
      <path fill="#FFF" stroke="#24729F" stroke-linejoin="round" stroke-width="2.587" d="M34.8397177,0 C15.1864496,0 0,15.4205771 0,35.0824551 C0,46.2470557 3.66733871,56.7255635 14.6693548,63.2526172 L14.6693548,84.3857422 L51.3427419,84.3857422 L51.3427419,71.6288193 C58.6774194,71.6691777 62.4107702,71.1371807 64.9815746,68.5615811 C68.2785121,65.2668682 67.963121,51.3652344 67.963121,51.3652344 C67.963121,51.3652344 71.0913609,51.4826406 73.4567944,51.387248 C74.2782782,51.3505586 75.0960948,50.9359678 75.5655141,50.2608818 C76.0386008,49.5857959 75.8882399,48.77129 75.9505847,47.9494463 C76.3723286,42.0571201 68.0804758,31.9455068 68.0804758,29.0066816 C68.0804758,10.5482178 50.6569496,0 34.8397177,0 Z"/>
      <path stroke="#0595DB" stroke-linejoin="round" stroke-width="2.587" d="M35.4509409,50.9470969 C35.4509409,50.9470969 53.7876344,37.7352248 53.7876344,27.9501477 C53.7876344,16.6644719 38.7845517,13.0945881 35.4509409,26.8274504 C32.11733,13.0945881 17.1142473,16.6644719 17.1142473,27.9501477 C17.1142473,37.7352248 35.4509409,50.9470969 35.4509409,50.9470969 L35.4509409,50.9470969 Z"/>
    </g>
    <g transform="translate(266.501 22.014)">
      <path stroke="#888" stroke-width="2.444" d="M126.708419,123.866158 C107.685111,64.5074468 60.1209016,17.9323455 0.173444084,0.305584247"/>
      <g stroke-linejoin="round" transform="rotate(-15 127.735 127.802)">
        <use fill="#D8D8D8" xlink:href="#adoption-flow-a"/>
        <path stroke="#888" stroke-width="2.444" d="M127.735445,134.345262 L120.009327,122.299284 L135.461563,122.299284 L127.735445,134.345262 Z"/>
      </g>
    </g>
    <g transform="rotate(-90 96.582 59.93)">
      <path stroke="#888" stroke-width="2.444" d="M126.708419,123.866158 C107.685111,64.5074468 60.1209016,17.9323455 0.173444084,0.305584247"/>
      <g stroke-linejoin="round" transform="rotate(-15 127.357 127.335)">
        <use fill="#D8D8D8" xlink:href="#adoption-flow-b"/>
        <path stroke="#888" stroke-width="2.444" d="M127.356887,133.878698 L119.63077,121.83272 L135.083005,121.83272 L127.356887,133.878698 Z"/>
      </g>
    </g>
    <g transform="rotate(90 70.239 325.871)">
      <path stroke="#888" stroke-width="2.444" d="M126.708419,123.866158 C107.685111,64.5074468 60.1209016,17.9323455 0.173444084,0.305584247"/>
      <g stroke-linejoin="round" transform="rotate(-15 127.735 127.802)">
        <use fill="#D8D8D8" xlink:href="#adoption-flow-c"/>
        <path stroke="#888" stroke-width="2.444" d="M127.735445,134.345262 L120.009327,122.299284 L135.461563,122.299284 L127.735445,134.345262 Z"/>
      </g>
    </g>
    <g transform="rotate(-180 88.631 195.066)">
      <path stroke="#888" stroke-width="2.444" d="M126.708419,123.866158 C107.685111,64.5074468 60.1209016,17.9323455 0.173444084,0.305584247"/>
      <g stroke-linejoin="round" transform="rotate(-15 127.735 127.802)">
        <use fill="#D8D8D8" xlink:href="#adoption-flow-d"/>
        <path stroke="#888" stroke-width="2.444" d="M127.735445,134.345262 L120.009327,122.299284 L135.461563,122.299284 L127.735445,134.345262 Z"/>
      </g>
    </g>
  </g>
</svg>
